<?xml version="1.0" encoding="UTF-8"?> <!-- Generator: Adobe Illustrator 23.1.0, SVG Export Plug-In . SVG Version: 6.00 Build 0) --> <svg xmlns="http://www.w3.org/2000/svg" xmlns:xlink="http://www.w3.org/1999/xlink" id="Capa_1" x="0px" y="0px" viewBox="0 0 270.6 116.7" style="enable-background:new 0 0 270.6 116.7;" xml:space="preserve"> <style type="text/css"> .st0{fill:url(#SVGID_1_);} .st1{fill:none;stroke:#FFFFFF;stroke-width:0.75;stroke-linecap:round;stroke-linejoin:round;stroke-miterlimit:10;} .st2{fill:#06497F;} .st3{fill:#FFFFFF;} .st4{opacity:0.59;} .st5{fill:none;stroke:#FFFFFF;stroke-linejoin:round;stroke-miterlimit:10;} .st6{fill:#06497F;stroke:#FFFFFF;stroke-linejoin:round;stroke-miterlimit:10;} .st7{fill:#06497F;stroke:#FFFFFF;stroke-linecap:round;stroke-linejoin:round;stroke-miterlimit:10;} .st8{opacity:0.59;fill:#FFFFFF;stroke:#FFFFFF;stroke-linecap:round;stroke-linejoin:round;stroke-miterlimit:10;enable-background:new ;} .st9{fill:#727176;} .st10{opacity:0.59;fill:#FFFFFF;enable-background:new ;} .st11{opacity:0.54;} .st12{opacity:0.58;} .st13{fill:url(#SVGID_2_);} </style> <linearGradient id="SVGID_1_" gradientUnits="userSpaceOnUse" x1="54.7" y1="39.9398" x2="268.5" y2="39.9398" gradientTransform="matrix(1 0 0 -1 0 115.8898)"> <stop offset="0" style="stop-color:#FFFFFF;stop-opacity:0"></stop> <stop offset="1" style="stop-color:#FFFFFF"></stop> </linearGradient> <rect x="54.7" y="51.2" class="st0" width="213.8" height="49.5"></rect> <title>logoalargado</title> <path class="st1" d="M107.5,19.7c-6.9,0-13.6,8.2-15.4,10.7c-2.2,3-4.5,6.6-7,10.5c-1.5,2.4-3.1,4.8-4.6,7.2 c-3.9,6.1-7.5,9-11.8,9.5c0,0-0.1,0-0.2,0c-0.4,0-0.8-0.2-1.1-0.5c-0.4-0.5-0.4-1.2-0.1-2.2c5-14.9,8.8-24.3,11.8-31.8 C81.5,17,83.3,12.7,84.6,8c0.4-1.7,0.3-3.2-0.3-4c-0.3-0.4-0.6-0.5-1.1-0.5c-2.4,0-4.5,1.7-5.3,4.4c-1.2,3.9-2.7,9.6-4.4,16.2 C71.2,33,68.3,44.2,65,54.7c-0.5,1.6-1.4,2.4-2.5,2.2c-6.2-1.8-8.9-6-7.8-12.3c0.1-0.5,0.5-2.1,1.3-4.8c1.1-4,2.7-9.5,2.9-11.5 c0.4-3.7,0-6.1-1.2-7.5c-0.7-0.8-1.8-1.2-3.3-1.2c-4.7,0-11.7,5.5-13.2,12c0,0.3,0,0.6,0.1,0.7l0,0c2.7-1.8,5.5-2.8,8.1-2.8 c1.8,0,3.1,0.5,3.9,1.5c1.1,1.3,1.4,3.3,0.9,6.5c-0.2,1-0.6,3.5-1.1,5.9s-0.9,4.8-1.1,5.9c-1.2,6.1-0.8,10,1.3,13 c1.5,2.2,2.9,2.9,5,4c0.3,0.2,0.7,0.4,1.1,0.6c0.7,0.5,1.3,1.5,1.1,2.4c-1.6,5.5-4,11.9-7.4,20.3c-0.9,2.3-0.8,4.2-0.3,5 c0.2,0.2,0.4,0.4,0.7,0.4c2.2,0,3.1-1.2,4.3-5.7l0.3-1.5c1.3-5.4,3.1-12.9,5.2-19c0.5-1.4,1.2-1.8,2.5-2.2c9.5-1.9,14.1-7.2,19.8-17 c0.8-1.4,1.6-2.9,2.5-4.5c0.9-1.8,1.9-3.7,3-5.5l0.8-1.3c3.9-6.6,8.8-14.8,16.9-17.6c0.2-0.1,0.3-0.2,0.5-0.2 c0.2-0.1,0.3-0.2,0.5-0.2C109.6,20,108.9,19.7,107.5,19.7z M80.4,8.7c0.4-1.1,1-2,1.8-2.4c0,0.2-0.1,0.5-0.2,0.9 c-1.3,4.3-2.9,8.4-5,13.8C78.3,16.1,79.4,11.8,80.4,8.7z M49.5,27.1c-1.1,0-2.3,0.1-3.4,0.4c2.4-3.1,6.1-5.3,8.3-5.3 c0.7,0,1.1,0.1,1.4,0.4c0.2,0.3,1,1.4,0.6,5.5c-0.1,0.5-0.2,1.3-0.5,2.2c-0.2-0.3-0.4-0.5-0.6-0.8C54,27.9,52,27.1,49.5,27.1z M83.5,48.2c-5.4,9.4-9.5,14.1-18,15.8l-0.3,0.1c-1.2,0.4-2.3,0.9-3.1,1.8c-0.3-0.4-0.7-0.8-1.1-1l-0.3-0.2 c-0.4-0.2-0.7-0.4-1.1-0.6c-2-1.1-3-1.6-4.1-3.2c-1.1-1.6-1.6-3.6-1.5-6.5c1.7,2.3,4.2,4,7.6,5l0.3,0.1c0.3,0.1,0.6,0.1,0.8,0.1 c0.6,0,1.6-0.1,2.6-0.9c0.7,0.9,1.8,1.4,3,1.4c0.2,0,0.4,0,0.6,0c5.2-0.6,9.2-3.8,13.6-10.6c0.5-0.8,1-1.5,1.5-2.3 C83.9,47.5,83.7,47.9,83.5,48.2z"></path> <g> <path class="st2" d="M82.2,6.3c-0.8,0.4-1.5,1.3-1.8,2.4c-1,3.1-2.1,7.3-3.4,12.3c2.2-5.5,3.8-9.5,5-13.8 C82.1,6.9,82.2,6.6,82.2,6.3z"></path> <path class="st3" d="M82.2,6.3L82.2,6.3L82.2,6.3z M82.2,6.3c-0.8,0.4-1.5,1.3-1.8,2.4c-1,3.1-2.1,7.3-3.4,12.3 c2.2-5.5,3.8-9.5,5-13.8C82.1,6.9,82.2,6.6,82.2,6.3L82.2,6.3z"></path> </g> <g class="st4"> <path class="st3" d="M82.2,6.3c-0.8,0.4-1.5,1.3-1.8,2.4c-1,3.1-2.1,7.3-3.4,12.3c2.2-5.5,3.8-9.5,5-13.8 C82.1,6.9,82.2,6.6,82.2,6.3z"></path> <path class="st3" d="M82.2,6.3L82.2,6.3L82.2,6.3z M82.2,6.3c-0.8,0.4-1.5,1.3-1.8,2.4c-1,3.1-2.1,7.3-3.4,12.3 c2.2-5.5,3.8-9.5,5-13.8C82.1,6.9,82.2,6.6,82.2,6.3L82.2,6.3z"></path> </g> <g> <path class="st2" d="M54,25.4c-0.3-0.1-0.6-0.2-1-0.4c0.3-0.1,0.6-0.2,0.9-0.3C53.9,25,54,25.2,54,25.4z"></path> <path class="st3" d="M54.4,22.2c-2.3,0-5.9,2.1-8.3,5.3c1.1-0.3,2.3-0.4,3.4-0.4c2.5,0,4.5,0.8,5.8,2.4c0.2,0.2,0.4,0.5,0.6,0.8 c0.2-0.9,0.4-1.7,0.5-2.2c0.4-4-0.3-5.2-0.6-5.5C55.6,22.3,55.1,22.2,54.4,22.2L54.4,22.2z"></path> </g> <g class="st4"> <path class="st3" d="M54,25.4c-0.3-0.1-0.6-0.2-1-0.4c0.3-0.1,0.6-0.2,0.9-0.3C53.9,25,54,25.2,54,25.4z"></path> <path class="st3" d="M54.4,22.2c-2.3,0-5.9,2.1-8.3,5.3c1.1-0.3,2.3-0.4,3.4-0.4c2.5,0,4.5,0.8,5.8,2.4c0.2,0.2,0.4,0.5,0.6,0.8 c0.2-0.9,0.4-1.7,0.5-2.2c0.4-4-0.3-5.2-0.6-5.5C55.6,22.3,55.1,22.2,54.4,22.2L54.4,22.2z"></path> </g> <g> <path class="st2" d="M61.9,62.5c-0.4-0.2-0.8-0.4-1.1-0.6c-0.3-0.2-0.6-0.3-0.9-0.5c0.4,0.1,0.7,0.2,1.1,0.3l0.4,0.1 c0.5,0.1,1,0.2,1.4,0.2c0.2,0,0.5,0,0.7,0c-0.5,0.2-0.9,0.4-1.4,0.7C62.1,62.6,61.9,62.5,61.9,62.5z"></path> <path class="st3" d="M84.1,47.1L84.1,47.1L84.1,47.1z M84.1,47.1c-0.5,0.8-1,1.6-1.5,2.3c-4.3,6.8-8.4,10-13.6,10.6 c-0.2,0-0.4,0-0.6,0c-1.2,0-2.3-0.5-3-1.4c-1,0.7-2,0.9-2.6,0.9c-0.3,0-0.6,0-0.8-0.1l-0.3-0.1c-3.4-1-6-2.7-7.6-5 c-0.1,2.8,0.4,4.9,1.5,6.5c1.1,1.7,2.1,2.2,4.1,3.2c0.4,0.2,0.7,0.4,1.1,0.6l0.3,0.2c0.4,0.3,0.8,0.6,1.1,1 c0.8-0.9,1.8-1.4,3.1-1.8l0.3-0.1c8.5-1.7,12.6-6.4,18-15.8C83.7,47.9,83.9,47.5,84.1,47.1L84.1,47.1z"></path> </g> <g class="st4"> <path class="st3" d="M61.9,62.5c-0.4-0.2-0.8-0.4-1.1-0.6c-0.3-0.2-0.6-0.3-0.9-0.5c0.4,0.1,0.7,0.2,1.1,0.3l0.4,0.1 c0.5,0.1,1,0.2,1.4,0.2c0.2,0,0.5,0,0.7,0c-0.5,0.2-0.9,0.4-1.4,0.7C62.1,62.6,61.9,62.5,61.9,62.5z"></path> <path class="st3" d="M84.1,47.1L84.1,47.1L84.1,47.1z M84.1,47.1c-0.5,0.8-1,1.6-1.5,2.3c-4.3,6.8-8.4,10-13.6,10.6 c-0.2,0-0.4,0-0.6,0c-1.2,0-2.3-0.5-3-1.4c-1,0.7-2,0.9-2.6,0.9c-0.3,0-0.6,0-0.8-0.1l-0.3-0.1c-3.4-1-6-2.7-7.6-5 c-0.1,2.8,0.4,4.9,1.5,6.5c1.1,1.7,2.1,2.2,4.1,3.2c0.4,0.2,0.7,0.4,1.1,0.6l0.3,0.2c0.4,0.3,0.8,0.6,1.1,1 c0.8-0.9,1.8-1.4,3.1-1.8l0.3-0.1c8.5-1.7,12.6-6.4,18-15.8C83.7,47.9,83.9,47.5,84.1,47.1L84.1,47.1z"></path> </g> <g> <g> <path class="st5" d="M48.9,106.6l3.2,4.4l3.5-4.8C54.4,105.6,51.8,104.8,48.9,106.6z"></path> <path class="st6" d="M60.9,96.9c-0.6,0-1.1,0.5-1.1,1.1v2.4l-3,4.1c-1.5-0.8-5.1-2.2-9,0.4l-3.2-4.3v-2.4c0-0.4-0.2-0.7-0.4-0.9 c-0.1-0.2-0.2-0.3-0.4-0.4c-5.1-2.6-11.1-5.5-17.2-7.6C21,87.4,15.4,86,10.3,86C14,73.8,12.4,44.7,12,38.4c6,0.1,11.4,1,16,2.1 c7.1,1.7,12.1,4.1,14.5,5.6c0.5,0.3,1.2,0.1,1.5-0.4s0.1-1.2-0.4-1.5c-2.5-1.6-7.8-4.1-15.2-5.8c-5-1.2-11-2.1-17.7-2.2l0,0 c-0.6,0-1.1,0.5-1.1,1.1c0,0.1,0,0.1,0,0.2c0.1,1.6,2.6,37.7-2.1,49.3l0,0c-0.2,0.6,0,1.2,0.6,1.5c0.2,0.1,0.4,0.1,0.5,0.1 c5.2-0.3,11.2,1.1,17,3.1s11.6,4.8,16.5,7.3v2.2c0,0.2,0.1,0.5,0.2,0.7l0,0l8.6,11.8c0.1,0.1,0.2,0.2,0.3,0.3 c0.5,0.4,1.2,0.3,1.5-0.2l0,0l8.7-12c0.2-0.2,0.2-0.4,0.2-0.7V98C62,97.4,61.5,96.9,60.9,96.9z M52.1,111l-3.2-4.4 c2.9-1.8,5.5-1,6.7-0.4L52.1,111z"></path> </g> <path class="st7" d="M52,111l-3.2-4.4c2.9-1.8,5.5-1,6.7-0.4L52,111z"></path> <path class="st8" d="M52,111l-3.2-4.4c2.9-1.8,5.5-1,6.7-0.4L52,111z"></path> </g> <g> <path class="st2" d="M90.8,71.2v8.3h-2.4v-8.2h-2.8v-2.1h8v2.1h-2.8C90.8,71.3,90.8,71.2,90.8,71.2z"></path> <path class="st2" d="M101.4,74.4v5h-2.3v-4.3c0-0.9-0.5-1.5-1.3-1.5c-0.9,0-1.5,0.8-1.5,1.9v4H94v-11h2.4v4.3 c0.5-0.9,1.3-1.4,2.4-1.4C100.4,71.4,101.4,72.6,101.4,74.4z"></path> <path class="st2" d="M109.8,76.2h-5c0.2,0.9,0.8,1.5,1.7,1.5c0.6,0,1.2-0.3,1.7-0.8l1.2,1.3c-0.7,0.9-1.8,1.4-3.1,1.4 c-2.3,0-3.8-1.6-3.8-4.1s1.5-4.1,3.7-4.1C108.7,71.4,109.9,73.3,109.8,76.2z M107.6,74.8c0-1-0.6-1.6-1.4-1.6s-1.3,0.7-1.5,1.6 H107.6z"></path> <path class="st2" d="M118.3,75.5c0,2.5-1.6,4.1-3.9,4.1c-2.4,0-3.9-1.6-3.9-4.1s1.6-4.1,3.9-4.1S118.3,73,118.3,75.5z M112.7,75.5 c0,1.2,0.7,2.1,1.6,2.1s1.6-0.8,1.6-2.1c0-1.2-0.7-2.1-1.6-2.1S112.7,74.3,112.7,75.5z"></path> <path class="st2" d="M121.8,72.8c0.5-0.9,1.3-1.4,2.3-1.5v2.3c-1.3-0.1-2.2,0.6-2.3,1.7v4.2h-2.3v-8h2.3V72.8z"></path> <path class="st2" d="M131.9,76.2h-5c0.2,0.9,0.8,1.5,1.7,1.5c0.6,0,1.2-0.3,1.7-0.8l1.2,1.3c-0.7,0.9-1.8,1.4-3.1,1.4 c-2.3,0-3.8-1.6-3.8-4.1s1.5-4.1,3.7-4.1C130.9,71.4,132.1,73.3,131.9,76.2z M129.7,74.8c0-1-0.6-1.6-1.4-1.6s-1.3,0.7-1.5,1.6 H129.7z"></path> <path class="st2" d="M137.8,79c-0.5,0.3-1.2,0.5-1.9,0.5c-1.4,0-2.4-0.9-2.4-2.5v-3.5h-1v-1.7h1v-2.2h2.3v2.2h1.9v1.7h-1.9v3.1 c0,0.6,0.2,0.9,0.7,0.9c0.2,0,0.5-0.1,0.9-0.3L137.8,79z"></path> <path class="st2" d="M141.4,69.2c0,0.8-0.5,1.4-1.2,1.4S139,70,139,69.2s0.5-1.3,1.2-1.3S141.4,68.4,141.4,69.2z M139,79.5v-8h2.3 v8H139z"></path> <path class="st2" d="M149.5,73.2l-1.6,1.1c-0.3-0.5-0.8-0.8-1.5-0.8c-0.9,0-1.5,0.8-1.5,2s0.6,2,1.5,2c0.7,0,1.2-0.3,1.5-0.9 l1.7,1.1c-0.6,1.2-1.7,1.8-3.3,1.8c-2.2,0-3.7-1.6-3.7-4.1s1.5-4.1,3.7-4.1C147.7,71.4,148.8,72.1,149.5,73.2z"></path> <path class="st2" d="M156.8,74.3v5.2h-2.2v-1c-0.5,0.7-1.2,1-2.2,1c-1.5,0-2.5-1-2.5-2.5s1-2.4,2.8-2.4h1.9v-0.1 c0-0.8-0.5-1.3-1.4-1.3c-0.6,0-1.4,0.2-2.1,0.7l-0.7-1.7c1.1-0.6,2.1-0.9,3.3-0.9C155.7,71.4,156.8,72.5,156.8,74.3z M154.6,76.8 v-0.7h-1.5c-0.7,0-1,0.3-1,0.9s0.4,0.9,1,0.9C153.8,77.9,154.4,77.4,154.6,76.8z"></path> <path class="st2" d="M158.5,79.5v-11h2.3v11H158.5z"></path> <path class="st2" d="M174,70.8l-1.4,1.8c-0.6-0.8-1.5-1.3-2.3-1.3c-1.5,0-2.6,1.3-2.6,3s1.1,3,2.6,3c0.8,0,1.7-0.5,2.3-1.2l1.4,1.6 c-1,1.1-2.5,1.9-3.8,1.9c-2.8,0-4.9-2.3-4.9-5.3s2.1-5.2,5-5.2C171.6,69,173,69.7,174,70.8z"></path> <path class="st2" d="M182.4,74.4v5h-2.3v-4.3c0-0.9-0.5-1.5-1.3-1.5c-0.9,0-1.5,0.8-1.5,1.9v4H175v-11h2.3v4.3 c0.5-0.9,1.3-1.4,2.4-1.4C181.4,71.4,182.4,72.6,182.4,74.4z"></path> <path class="st2" d="M190.8,76.2h-5c0.2,0.9,0.8,1.5,1.7,1.5c0.6,0,1.2-0.3,1.7-0.8l1.2,1.3c-0.7,0.9-1.8,1.4-3.1,1.4 c-2.3,0-3.8-1.6-3.8-4.1s1.5-4.1,3.7-4.1C189.7,71.4,191,73.3,190.8,76.2z M188.6,74.8c0-1-0.6-1.6-1.4-1.6c-0.8,0-1.3,0.7-1.5,1.6 H188.6z"></path> <path class="st2" d="M204.2,74.4v5h-2.3v-4.3c0-0.9-0.5-1.5-1.2-1.5c-0.9,0-1.4,0.8-1.4,1.9v4H197v-4.3c0-0.9-0.5-1.5-1.2-1.5 c-0.9,0-1.4,0.8-1.4,1.9v3.9h-2.3v-8h2.3v1.3c0.5-0.9,1.3-1.4,2.4-1.4c1.2,0,2,0.7,2.4,1.8c0.5-1.2,1.3-1.8,2.5-1.8 C203.2,71.4,204.2,72.6,204.2,74.4z"></path> <path class="st2" d="M208.2,69.2c0,0.8-0.5,1.4-1.2,1.4s-1.2-0.6-1.2-1.4s0.5-1.3,1.2-1.3C207.7,67.9,208.2,68.4,208.2,69.2z M205.9,79.5v-8h2.3v8H205.9z"></path> <path class="st2" d="M215.5,72.3l-0.8,1.7c-0.9-0.5-1.7-0.8-2.3-0.8c-0.4,0-0.7,0.2-0.7,0.5c0,1.1,3.8,0.6,3.8,3.3 c0,1.6-1.3,2.5-3,2.5c-1.2,0-2.4-0.4-3.2-1.1l0.7-1.6c0.8,0.6,1.7,1,2.5,1c0.5,0,0.8-0.2,0.8-0.5c0-1.2-3.7-0.6-3.7-3.4 c0-1.6,1.3-2.5,2.9-2.5C213.6,71.4,214.7,71.7,215.5,72.3z"></path> <path class="st2" d="M221.5,79c-0.5,0.3-1.2,0.5-1.9,0.5c-1.4,0-2.4-0.9-2.4-2.5v-3.5h-1v-1.7h1v-2.2h2.3v2.2h1.9v1.7h-1.9v3.1 c0,0.6,0.2,0.9,0.7,0.9c0.2,0,0.5-0.1,0.9-0.3L221.5,79z"></path> <path class="st2" d="M224.9,72.8c0.5-0.9,1.3-1.4,2.3-1.5v2.3c-1.3-0.1-2.2,0.6-2.3,1.7v4.2h-2.3v-8h2.3V72.8z"></path> <path class="st2" d="M232.4,80.3c-0.5,1.4-1.4,2.2-2.8,2.2c-0.8,0-1.5-0.3-2.1-0.8l1-1.7c0.3,0.3,0.6,0.4,0.9,0.4 c0.4,0,0.7-0.2,0.9-0.6l0.2-0.4l-3-7.8h2.4l1.8,5.3l1.6-5.3h2.3L232.4,80.3z"></path> <path class="st2" d="M245.8,74.3v5.2h-2.2v-1c-0.5,0.7-1.2,1-2.2,1c-1.5,0-2.5-1-2.5-2.5s1-2.4,2.8-2.4h1.9v-0.1 c0-0.8-0.5-1.3-1.4-1.3c-0.6,0-1.4,0.2-2.1,0.7l-0.7-1.7c1.1-0.6,2.1-0.9,3.3-0.9C244.6,71.4,245.8,72.5,245.8,74.3z M243.5,76.8 v-0.7H242c-0.7,0-1,0.3-1,0.9s0.4,0.9,1,0.9C242.7,77.9,243.4,77.4,243.5,76.8z"></path> <path class="st2" d="M254.7,74.4v5h-2.3v-4.3c0-0.9-0.5-1.5-1.3-1.5s-1.4,0.7-1.5,1.6v4.3h-2.2v-8h2.3v1.3c0.5-0.9,1.3-1.4,2.4-1.4 C253.7,71.4,254.7,72.6,254.7,74.4z"></path> <path class="st2" d="M263.6,79.5h-2.3v-1c-0.5,0.7-1.2,1.2-2.2,1.2c-2,0-3.4-1.7-3.4-4.1s1.3-4.1,3.3-4.1c0.9,0,1.7,0.4,2.2,1.2 v-4.2h2.3v11H263.6z M261.3,75.5c0-1.2-0.6-2.1-1.6-2.1s-1.6,0.8-1.6,2.1c0,1.2,0.7,2.1,1.6,2.1S261.3,76.7,261.3,75.5z"></path> </g> <g> <g> <path class="st2" d="M94.9,86.1l-1.5,1.8c-0.6-0.8-1.6-1.3-2.4-1.3c-1.5,0-2.7,1.3-2.7,3s1.2,3,2.7,3c0.8,0,1.7-0.5,2.4-1.2 l1.4,1.6c-1,1.1-2.6,1.9-4,1.9c-2.9,0-5.1-2.3-5.1-5.3s2.2-5.2,5.1-5.2C92.4,84.3,93.9,85,94.9,86.1z"></path> <path class="st2" d="M103.3,90.8c0,2.5-1.6,4.1-4,4.1s-4.1-1.6-4.1-4.1s1.6-4.1,4.1-4.1C101.7,86.7,103.3,88.3,103.3,90.8z M97.6,90.8c0,1.2,0.7,2.1,1.7,2.1s1.6-0.8,1.6-2.1c0-1.2-0.7-2.1-1.6-2.1C98.3,88.7,97.6,89.6,97.6,90.8z"></path> <path class="st2" d="M117.1,89.7v5h-2.4v-4.2c0-0.9-0.5-1.5-1.3-1.5c-0.9,0-1.4,0.8-1.4,1.9v3.9h-2.4v-4.3c0-0.9-0.5-1.5-1.3-1.5 c-0.9,0-1.5,0.8-1.5,1.9v3.9h-2.4v-8h2.4v1.3c0.5-0.9,1.4-1.4,2.4-1.4c1.2,0,2.1,0.7,2.5,1.8c0.5-1.2,1.4-1.8,2.6-1.8 C116.1,86.7,117.1,87.9,117.1,89.7z"></path> <path class="st2" d="M127,90.8c0,2.4-1.3,4-3.4,4c-1,0-1.7-0.4-2.3-1.2v3.9h-2.4V86.8h2.4v1c0.5-0.7,1.3-1.1,2.2-1.1 C125.6,86.7,127,88.4,127,90.8z M124.6,90.8c0-1.2-0.7-2.1-1.7-2.1s-1.6,0.9-1.6,2.1s0.7,2.1,1.6,2.1 C123.9,92.8,124.6,92,124.6,90.8z"></path> <path class="st2" d="M135.5,94.8h-2.4v-1.3c-0.5,0.9-1.3,1.4-2.4,1.4c-1.6,0-2.7-1.2-2.7-3v-5h2.4v4.3c0,0.9,0.5,1.5,1.2,1.5 c0.9,0,1.4-0.8,1.4-1.9v-3.9h2.4v7.9H135.5z"></path> <path class="st2" d="M142.2,94.3c-0.5,0.3-1.3,0.5-2,0.5c-1.4,0-2.5-0.9-2.5-2.5v-3.5h-1v-1.7h1v-2.2h2.4v2.2h1.9v1.7h-1.9v3.1 c0,0.6,0.2,0.9,0.7,0.9c0.2,0,0.6-0.1,0.9-0.3L142.2,94.3z"></path> <path class="st2" d="M149.9,89.6v5.2h-2.3v-0.9c-0.5,0.7-1.3,1-2.3,1c-1.6,0-2.5-1-2.5-2.5s1-2.4,2.8-2.4h2v-0.1 c0-0.8-0.5-1.3-1.4-1.3c-0.6,0-1.4,0.2-2.2,0.7l-0.7-1.7c1.2-0.6,2.2-0.9,3.4-0.9C148.7,86.7,149.9,87.8,149.9,89.6z M147.6,92.1 v-0.7h-1.5c-0.7,0-1.1,0.3-1.1,0.9s0.4,0.9,1,0.9C146.8,93.2,147.4,92.7,147.6,92.1z"></path> <path class="st2" d="M156.4,94.3c-0.5,0.3-1.3,0.5-2,0.5c-1.4,0-2.5-0.9-2.5-2.5v-3.5h-1v-1.7h1v-2.2h2.4v2.2h1.9v1.7h-1.9v3.1 c0,0.6,0.2,0.9,0.7,0.9c0.2,0,0.6-0.1,0.9-0.3L156.4,94.3z"></path> <path class="st2" d="M160,84.5c0,0.8-0.5,1.4-1.3,1.4c-0.7,0-1.3-0.6-1.3-1.4s0.5-1.3,1.3-1.3S160,83.7,160,84.5z M157.6,94.8v-8 h2.4v8H157.6z"></path> <path class="st2" d="M169.4,90.8c0,2.5-1.6,4.1-4,4.1s-4.1-1.6-4.1-4.1s1.6-4.1,4.1-4.1C167.7,86.7,169.4,88.3,169.4,90.8z M163.6,90.8c0,1.2,0.7,2.1,1.7,2.1s1.6-0.8,1.6-2.1c0-1.2-0.7-2.1-1.6-2.1C164.3,88.7,163.6,89.6,163.6,90.8z"></path> <path class="st2" d="M178.2,89.7v5h-2.4v-4.2c0-0.9-0.5-1.5-1.3-1.5c-0.9,0-1.4,0.7-1.5,1.6v4.2h-2.4v-8h2.4v1.3 c0.5-0.9,1.4-1.4,2.5-1.4C177.1,86.7,178.2,87.9,178.2,89.7z"></path> <path class="st2" d="M186.4,89.6v5.2h-2.3v-0.9c-0.5,0.7-1.3,1-2.3,1c-1.6,0-2.5-1-2.5-2.5s1-2.4,2.8-2.4h2v-0.1 c0-0.8-0.5-1.3-1.4-1.3c-0.6,0-1.4,0.2-2.2,0.7l-0.7-1.7c1.2-0.6,2.2-0.9,3.4-0.9C185.3,86.7,186.4,87.8,186.4,89.6z M184.1,92.1 v-0.7h-1.5c-0.7,0-1.1,0.3-1.1,0.9s0.4,0.9,1,0.9C183.3,93.2,184,92.7,184.1,92.1z"></path> <path class="st2" d="M188.2,94.8v-11h2.4v11H188.2z"></path> <path class="st2" d="M204.2,94.8v-6.7l-2.3,5.7h-1.6l-2.3-5.7v6.7h-2.2V84.4h2.7l2.6,6.2l2.6-6.2h2.7v10.4H204.2z"></path> <path class="st2" d="M215.7,90.8c0,2.5-1.6,4.1-4,4.1s-4.1-1.6-4.1-4.1s1.6-4.1,4.1-4.1C214.1,86.7,215.7,88.3,215.7,90.8z M210,90.8c0,1.2,0.7,2.1,1.7,2.1s1.6-0.8,1.6-2.1c0-1.2-0.7-2.1-1.6-2.1C210.7,88.7,210,89.6,210,90.8z"></path> <path class="st2" d="M224.5,94.8h-2.4v-1c-0.5,0.7-1.3,1.2-2.2,1.2c-2.1,0-3.5-1.7-3.5-4.1s1.4-4.1,3.4-4.1c1,0,1.8,0.4,2.3,1.2 v-4.1h2.4V94.8z M222.1,90.8c0-1.2-0.7-2.1-1.6-2.1s-1.6,0.8-1.7,2.1c0,1.2,0.7,2.1,1.7,2.1S222.1,92,222.1,90.8z"></path> <path class="st2" d="M233.4,91.5h-5.2c0.2,0.9,0.9,1.5,1.7,1.5c0.6,0,1.3-0.3,1.8-0.8l1.3,1.3c-0.8,0.9-1.9,1.4-3.2,1.4 c-2.4,0-3.9-1.6-3.9-4.1s1.6-4.1,3.9-4.1C232.3,86.7,233.6,88.6,233.4,91.5z M231.2,90.1c0-1-0.6-1.6-1.4-1.6 c-0.8,0-1.4,0.7-1.5,1.6H231.2z"></path> <path class="st2" d="M234.8,94.8v-11h2.4v11H234.8z"></path> <path class="st2" d="M239.2,94.8v-11h2.4v11H239.2z"></path> <path class="st2" d="M246,84.5c0,0.8-0.5,1.4-1.3,1.4s-1.3-0.6-1.3-1.4s0.5-1.3,1.3-1.3S246,83.7,246,84.5z M243.6,94.8v-8h2.4v8 H243.6z"></path> <path class="st2" d="M255.4,89.7v5H253v-4.2c0-0.9-0.5-1.5-1.3-1.5c-0.9,0-1.4,0.7-1.5,1.6v4.2h-2.4v-8h2.4v1.3 c0.5-0.9,1.4-1.4,2.5-1.4C254.3,86.7,255.4,87.9,255.4,89.7z"></path> <path class="st2" d="M264.2,94c0,2.3-1.6,3.7-4,3.7c-1.3,0-2.5-0.4-3.3-1l0.8-1.7c0.7,0.5,1.5,0.8,2.3,0.8c1.1,0,1.8-0.7,1.8-1.6 v-0.8c-0.5,0.7-1.2,1.1-2.1,1.1c-1.9,0-3.2-1.5-3.2-3.9c0-2.3,1.3-3.8,3.1-3.8c0.9,0,1.7,0.4,2.2,1.1v-1h2.4L264.2,94L264.2,94z M261.8,90.6c0-1.2-0.6-2-1.5-2s-1.6,0.8-1.6,2c0,1.1,0.6,1.9,1.6,1.9C261.2,92.5,261.8,91.7,261.8,90.6z"></path> </g> </g> <g> <g> <path class="st9" d="M93.9,63.8v-6.2l-2.1,5.3h-1.4l-2.1-5.3v6.2h-2v-9.6h2.4l2.3,5.7l2.3-5.7h2.4v9.6 C95.7,63.8,93.9,63.8,93.9,63.8z"></path> <path class="st9" d="M103.4,59v4.8h-2.1V63c-0.4,0.6-1.1,1-2,1c-1.4,0-2.3-1-2.3-2.3c0-1.4,0.9-2.2,2.5-2.2h1.7v-0.1 c0-0.7-0.4-1.2-1.3-1.2c-0.6,0-1.3,0.2-2,0.6l-0.5-1.6c1-0.5,2-0.8,3.1-0.8C102.3,56.4,103.4,57.4,103.4,59z M101.3,61.3v-0.7H100 c-0.6,0-1,0.2-1,0.8c0,0.5,0.3,0.9,0.9,0.9C100.6,62.4,101.2,61.9,101.3,61.3z"></path> <path class="st9" d="M110,57.2l-0.7,1.5c-0.8-0.5-1.5-0.7-2.1-0.7c-0.4,0-0.7,0.2-0.7,0.5c0,1,3.5,0.5,3.5,3.1 c0,1.5-1.2,2.3-2.8,2.3c-1.1,0-2.2-0.4-3-1l0.7-1.5c0.7,0.6,1.6,0.9,2.3,0.9c0.4,0,0.7-0.2,0.7-0.5c0-1.1-3.4-0.5-3.4-3.1 c0-1.5,1.2-2.3,2.7-2.3C108.2,56.4,109.2,56.7,110,57.2z"></path> <path class="st9" d="M115.5,63.4c-0.5,0.3-1.1,0.5-1.8,0.5c-1.3,0-2.2-0.8-2.2-2.3v-3.2h-0.9v-1.5h0.9v-2h2.1v2h1.7v1.6h-1.7v2.9 c0,0.6,0.2,0.8,0.6,0.8c0.2,0,0.5-0.1,0.8-0.2L115.5,63.4z"></path> <path class="st9" d="M122.7,60.8H118c0.2,0.9,0.8,1.4,1.6,1.4c0.6,0,1.1-0.3,1.6-0.8l1.1,1.2c-0.7,0.8-1.7,1.3-2.9,1.3 c-2.2,0-3.5-1.5-3.5-3.7c0-2.3,1.4-3.8,3.5-3.8C121.7,56.4,122.9,58.1,122.7,60.8z M120.7,59.5c0-0.9-0.5-1.5-1.3-1.5 c-0.7,0-1.2,0.6-1.4,1.5H120.7z"></path> <path class="st9" d="M126,57.7c0.5-0.9,1.2-1.3,2.1-1.4v2.2c-1.2-0.1-2,0.5-2.1,1.6v3.8h-2.1v-7.4h2.1C126,56.5,126,57.7,126,57.7 z"></path> <path class="st9" d="M138.7,55.2l-0.8,1.9c-0.9-0.6-2.1-1-2.8-1c-0.6,0-0.9,0.2-0.9,0.7c0,1.7,4.5,0.7,4.5,4.2 c0,1.9-1.5,2.9-3.4,2.9c-1.4,0-2.9-0.6-3.9-1.5l0.8-1.9c0.9,0.9,2.2,1.4,3.1,1.4c0.7,0,1.1-0.3,1.1-0.8c0-1.7-4.5-0.7-4.5-4.1 c0-1.8,1.4-2.9,3.4-2.9C136.6,54.2,137.8,54.6,138.7,55.2z"></path> <path class="st9" d="M144.2,63.4c-0.5,0.3-1.1,0.5-1.8,0.5c-1.3,0-2.2-0.8-2.2-2.3v-3.2h-0.9v-1.5h0.9v-2h2.1v2h1.7v1.6h-1.7v2.9 c0,0.6,0.2,0.8,0.6,0.8c0.2,0,0.5-0.1,0.8-0.2L144.2,63.4z"></path> <path class="st9" d="M151.7,63.8h-2.1v-1.2c-0.5,0.9-1.2,1.3-2.1,1.3c-1.4,0-2.4-1.1-2.4-2.8v-4.6h2.1v4c0,0.9,0.4,1.4,1.1,1.4 c0.8,0,1.3-0.8,1.3-1.7v-3.7h2.1L151.7,63.8L151.7,63.8z"></path> <path class="st9" d="M160.1,63.8H158v-1c-0.5,0.7-1.1,1.1-2,1.1c-1.9,0-3.1-1.5-3.1-3.8s1.2-3.7,3-3.7c0.9,0,1.6,0.4,2,1.1v-3.7 h2.1v10C160,63.8,160.1,63.8,160.1,63.8z M157.9,60.2c0-1.1-0.6-1.9-1.5-1.9s-1.5,0.8-1.5,1.9s0.6,1.9,1.5,1.9 S157.9,61.3,157.9,60.2z"></path> <path class="st9" d="M164,54.4c0,0.7-0.5,1.3-1.1,1.3c-0.7,0-1.1-0.5-1.1-1.3c0-0.7,0.5-1.2,1.1-1.2C163.5,53.1,164,53.7,164,54.4 z M161.8,63.8v-7.3h2.1v7.4L161.8,63.8L161.8,63.8z"></path> <path class="st9" d="M171.9,60.8h-4.7c0.2,0.9,0.8,1.4,1.6,1.4c0.6,0,1.1-0.3,1.6-0.8l1.1,1.2c-0.7,0.8-1.7,1.3-2.9,1.3 c-2.2,0-3.5-1.5-3.5-3.7c0-2.3,1.4-3.8,3.5-3.8C170.9,56.4,172,58.1,171.9,60.8z M169.8,59.5c0-0.9-0.5-1.5-1.3-1.5 c-0.7,0-1.2,0.6-1.4,1.5H169.8z"></path> <path class="st9" d="M178.1,57.2l-0.7,1.5c-0.8-0.5-1.5-0.7-2.1-0.7c-0.4,0-0.7,0.2-0.7,0.5c0,1,3.5,0.5,3.5,3.1 c0,1.5-1.2,2.3-2.8,2.3c-1.1,0-2.2-0.4-3-1l0.7-1.5c0.7,0.6,1.6,0.9,2.3,0.9c0.4,0,0.7-0.2,0.7-0.5c0-1.1-3.4-0.5-3.4-3.1 c0-1.5,1.2-2.3,2.7-2.3C176.4,56.4,177.3,56.7,178.1,57.2z"></path> <path class="st9" d="M184.4,54.4c0,0.7-0.5,1.3-1.1,1.3c-0.7,0-1.1-0.5-1.1-1.3c0-0.7,0.5-1.2,1.1-1.2 C183.9,53.1,184.4,53.7,184.4,54.4z M182.2,63.8v-7.3h2.1v7.4L182.2,63.8L182.2,63.8z"></path> <path class="st9" d="M192.8,59.2v4.6h-2.1v-4c0-0.9-0.5-1.4-1.2-1.4c-0.8,0-1.3,0.6-1.4,1.5v3.9H186v-7.3h2.1v1.2 c0.5-0.9,1.2-1.3,2.2-1.3C191.8,56.4,192.8,57.5,192.8,59.2z"></path> </g> </g> <g> <path class="st3" d="M52.2,80.4c-6.1,22.4-11.6,14.1-20.6,11.4c-8.3-2.4-21.5-4.5-21.4-5.7c1-9.1,0.7-48.3,0.7-48.3s30,1.3,33.1,8 C48.7,56.1,54.5,71.8,52.2,80.4z"></path> <g> <g> <path class="st2" d="M52.7,96.9c-2.3,0-2.6-3.4-1.4-6.8c3.9-9.6,6-15.6,7.3-20.1c0.1-0.5-0.2-1-0.6-1.3c-2.7-1.5-4.6-2.2-6.4-4.9 c-2.4-3.4-2.6-7.8-1.5-13.7c0.3-2.1,1.8-9.7,2.2-11.8c0.8-5-0.6-6.8-3.8-6.8c-2.2,0-4.8,0.7-7.8,2.7c-0.8,0.2-1.7-0.5-1.5-1.9 c0.5-2.4,1.8-4.6,3.4-6.6c-2.5,2.3-4.6,5.4-5.4,8.7C37,36,38,36.7,38.8,36.5c3-2.1,5.6-2.7,7.8-2.7c3.2,0,4.6,1.7,3.8,6.8 c-0.3,2.1-1.8,9.7-2.2,11.8c-1.1,6-0.9,10.3,1.5,13.7c1.8,2.7,3.7,3.4,6.4,4.9c0.3,0.2,0.7,0.8,0.6,1.3 c-1.4,4.6-3.4,10.5-7.3,20.1c-1.3,3.3-0.9,6.8,1.4,6.8c2,0,3.1-0.9,3.9-2.5C54.1,96.8,53.4,96.9,52.7,96.9z"></path> <path class="st2" d="M49.5,29.6c1.8,0,3.1,0.5,3.9,1.5c1.1,1.3,1.4,3.3,0.9,6.5c-0.2,1-0.6,3.5-1.1,5.9s-0.9,4.8-1.1,5.9 c-1.2,6.1-0.8,10,1.3,13c1.5,2.2,2.9,2.9,5,4c0.3,0.2,0.7,0.4,1.1,0.6c0.7,0.5,1.3,1.5,1.1,2.4c-1.6,5.5-4,11.9-7.4,20.3 c-0.9,2.3-0.8,4.2-0.3,5c0.2,0.2,0.4,0.4,0.7,0.4c2.2,0,3.1-1.2,4.3-5.7l0.3-1.5c1.3-5.4,3.1-12.9,5.2-19 c0.5-1.4,1.2-1.8,2.5-2.2c9.5-1.9,14.1-7.2,19.8-17c0.8-1.4,1.6-2.9,2.5-4.5c0.9-1.8,1.9-3.7,3-5.5l0.8-1.3 c3.9-6.6,8.8-14.8,16.9-17.6c0.2-0.1,0.3-0.2,0.5-0.2c0.2-0.1,0.3-0.2,0.5-0.2c-0.2-0.2-0.9-0.6-2.3-0.6 c-6.9,0-13.6,8.2-15.4,10.7c-2.2,3-4.5,6.6-7,10.5c-1.5,2.4-3.1,4.8-4.6,7.2c-3.9,6.1-7.5,9-11.8,9.5c0,0-0.1,0-0.2,0 c-0.4,0-0.8-0.2-1.1-0.5c-0.4-0.5-0.4-1.2-0.1-2.2c5-14.9,8.8-24.3,11.8-31.8c2.4-6.1,4.2-10.4,5.5-15.1C85,6.3,84.9,4.8,84.3,4 c-0.3-0.4-0.6-0.5-1.1-0.5c-2.4,0-4.5,1.7-5.3,4.4c-1.2,3.9-2.7,9.6-4.4,16.2C71.2,33,68.3,44.2,65,54.7 c-0.5,1.6-1.4,2.4-2.5,2.2c-6.2-1.8-8.9-6-7.8-12.3c0.1-0.5,0.5-2.1,1.3-4.8c1.1-4,2.7-9.5,2.9-11.5c0.4-3.7,0-6.1-1.2-7.5 c-0.7-0.8-1.8-1.2-3.3-1.2c-4.7,0-11.7,5.5-13.2,12c0,0.3,0,0.6,0.1,0.7l0,0C44.1,30.6,46.8,29.6,49.5,29.6z"></path> <path class="st10" d="M54,54.4c-0.1,2.8,0.4,4.9,1.5,6.5c1.1,1.7,2.1,2.2,4.1,3.2c0.4,0.2,0.7,0.4,1.1,0.6l0.3,0.2 c0.4,0.3,0.8,0.6,1.1,1c0.8-0.9,1.8-1.4,3.1-1.8l0.3-0.1c8.5-1.7,12.6-6.4,18-15.8c0.2-0.3,0.4-0.7,0.6-1.1 c-0.5,0.8-1,1.6-1.5,2.3c-4.3,6.8-8.4,10-13.6,10.6c-0.2,0-0.4,0-0.6,0l0,0c-1.2,0-2.3-0.5-3-1.4c-1,0.7-2,0.9-2.6,0.9 c-0.3,0-0.6,0-0.8-0.1l-0.3-0.1C58.3,58.4,55.7,56.7,54,54.4z M49.5,27.1c2.5,0,4.5,0.8,5.8,2.4c0.2,0.2,0.4,0.5,0.6,0.8 c0.2-0.9,0.4-1.7,0.5-2.2c0.4-4-0.3-5.2-0.6-5.5c-0.2-0.2-0.7-0.4-1.4-0.4c-2.3,0-5.9,2.1-8.3,5.3C47.2,27.2,48.4,27.1,49.5,27.1 z M82.2,6.3c-0.8,0.4-1.5,1.3-1.8,2.4c-1,3.1-2.1,7.3-3.4,12.3c2.2-5.5,3.8-9.5,5-13.8C82.1,6.9,82.2,6.6,82.2,6.3z"></path> </g> <g class="st11"> <g> <g> <path class="st2" d="M18,61.9c-0.4,0.1-0.5,0.5-0.5,0.9c0,0.2,0.1,0.4,0.2,0.5c0.2,0.1,0.3,0.2,0.5,0.2c0.3,0,0.7-0.2,0.9-0.4 c0.2-0.3,0.1-0.7-0.1-0.9c-0.3-0.3-0.9-0.5-1.2-0.2c-0.1,0.1-0.1,0.2,0,0.2c0.1,0.1,0.1,0.1,0.2,0s0.3-0.1,0.4-0.1 s0.3,0.1,0.4,0.2c0,0,0,0,0.1,0.1l0,0l0,0l0,0l0,0l0,0v0.1l0,0l0,0l0,0v0.1l0,0l0,0l0,0l0,0l0,0l0,0l0,0l0,0l0,0 c0,0,0,0-0.1,0.1l0,0l0,0c0,0,0,0-0.1,0l0,0l0,0l0,0h-0.1c0,0,0,0-0.1,0l0,0c-0.1,0-0.3,0-0.4-0.1c-0.1,0-0.1-0.1-0.1-0.1 s-0.1-0.1-0.1-0.2c0-0.1,0-0.1,0-0.2c0,0,0,0,0-0.1v-0.1c0,0,0,0,0-0.1c0,0,0,0,0-0.1l0,0l0,0l0,0l0,0l0,0l0,0l0,0 c0,0,0,0,0.1,0s0.1-0.1,0.1-0.2C18.2,62,18.1,61.9,18,61.9L18,61.9z"></path> </g> </g> <g> <g> <path class="st2" d="M23.5,59c-0.4,0-0.8,0.3-0.8,0.7c-0.1,0.4,0.1,0.8,0.5,1s0.8,0,1.1-0.2c0.3-0.3,0.4-0.7,0.3-1 c-0.1-0.2-0.3-0.4-0.5-0.4c-0.2-0.1-0.5-0.1-0.7,0.1c-0.1,0.1-0.1,0.1,0,0.2c0.1,0.1,0.2,0.1,0.2,0l0,0l0,0l0,0l0,0l0,0 c0.1,0,0.2,0,0.2,0c0.1,0,0.1,0,0.2,0.1l0,0l0,0l0,0l0,0c0,0,0,0,0,0.1c0,0,0,0,0,0.1v0.1l0,0l0,0c0,0,0,0,0,0.1l0,0l0,0V60 c0,0,0,0.1,0,0c0,0,0,0,0,0.1c0,0,0,0.1-0.1,0.1l0,0l0,0c0,0,0,0.1-0.1,0.1l0,0l0,0l0,0c0,0-0.1,0-0.1,0.1l0,0l0,0l0,0h-0.1 c0,0,0,0-0.1,0l0,0l0,0h-0.1l0,0c0,0,0,0-0.1,0c-0.3-0.1-0.4-0.4-0.4-0.6l0,0l0,0c0,0,0,0,0-0.1c0,0,0,0,0-0.1l0,0l0,0 c0,0,0-0.1,0.1-0.1l0,0l0,0l0,0c0.1-0.1,0.2-0.2,0.4-0.2C23.7,59.4,23.7,59.1,23.5,59L23.5,59z"></path> </g> </g> <g> <g> <path class="st2" d="M20.2,67.4c-0.4-0.2-0.8,0.1-1,0.4C19.1,68,19,68.1,19,68.3s0.1,0.4,0.2,0.5c0.2,0.3,0.7,0.4,1.1,0.3 s0.6-0.5,0.6-0.9c0-0.2,0-0.5-0.2-0.6C20.5,67.5,20.3,67.4,20.2,67.4c-0.2-0.1-0.4,0.1-0.2,0.2c0.1,0.1,0.3,0.1,0.4,0.2 c0.1,0,0.1,0,0.1,0.1c0,0,0.1,0.1,0.1,0.2c0,0.3-0.1,0.6-0.3,0.7c-0.2,0.1-0.6,0.1-0.8,0c-0.2-0.2-0.3-0.4-0.2-0.7 c0.1-0.2,0.5-0.5,0.7-0.4c0.1,0,0.2,0,0.2-0.1C20.3,67.5,20.2,67.4,20.2,67.4L20.2,67.4z"></path> </g> </g> <g> <g> <path class="st2" d="M15.1,63.6c-0.3-0.3-0.6,0-0.8,0.2c-0.1,0.1-0.2,0.3-0.2,0.4c-0.1,0.2-0.1,0.4,0,0.6 c0.2,0.4,0.7,0.6,1.1,0.4c0.4-0.1,0.7-0.6,0.7-1c0-0.3-0.2-0.5-0.4-0.7c-0.2-0.1-0.5-0.2-0.7-0.2s-0.2,0.3,0,0.3s0.3,0,0.5,0.1 c0.1,0.1,0.2,0.2,0.3,0.4c0.1,0.3-0.1,0.6-0.3,0.8c-0.3,0.2-0.7,0.1-0.9-0.1c-0.1-0.1-0.1-0.3-0.1-0.4v-0.1l0,0l0,0 c0-0.1,0.1-0.1,0.1-0.1c0.1-0.1,0.2-0.2,0.3-0.3l0,0l0,0l0,0l0,0l0,0l0,0l0,0l0,0l0,0l0,0l0,0c0,0.1,0.1,0.1,0.2,0.1 C15.1,63.8,15.1,63.7,15.1,63.6L15.1,63.6z"></path> </g> </g> <g> <g> <path class="st2" d="M15.4,58.9c-0.4-0.3-0.8,0.2-0.9,0.6c-0.1,0.5,0.3,0.9,0.7,1s0.7-0.1,0.9-0.4c0.2-0.3,0.2-0.7,0-1 c-0.1-0.2-0.3-0.3-0.5-0.3c-0.2-0.1-0.5-0.1-0.6,0.1c-0.1,0.1,0.1,0.3,0.2,0.2l0,0l0,0C15.3,59,15.3,59,15.4,58.9 C15.4,59,15.4,59,15.4,58.9C15.4,59,15.4,59,15.4,58.9c0.1,0.1,0.1,0.1,0.2,0.1c0.1,0,0.1,0,0.2,0.1c0,0,0.1,0,0.1,0.1 c0,0,0,0,0.1,0l0,0l0,0c0,0,0,0.1,0.1,0.1l0,0l0,0l0,0l0,0l0,0c0,0.1,0,0.1,0,0.2v0.1l0,0l0,0v0.1l0,0l0,0c0,0,0,0.1-0.1,0.1 l0,0l0,0c-0.1,0-0.1,0.1-0.2,0.1c-0.1,0-0.1,0-0.2,0c-0.1,0-0.3-0.1-0.4-0.2c-0.1-0.1-0.2-0.2-0.2-0.4c0-0.1,0-0.2,0-0.2l0,0 l0,0l0,0c0,0,0-0.1,0.1-0.1C15.2,58.9,15.2,58.9,15.4,58.9L15.4,58.9L15.4,58.9L15.4,58.9L15.4,58.9L15.4,58.9L15.4,58.9 c0,0,0.1,0,0.1-0.1C15.5,59,15.5,59,15.4,58.9L15.4,58.9z"></path> </g> </g> <g> <g> <path class="st2" d="M15.9,60.3c0.7,0.5,1.5,1,2,1.7c0,0.1,0.1,0.1,0.2,0.1s0.1-0.1,0.1-0.2c-0.6-0.8-1.4-1.3-2.1-1.8 c-0.1,0-0.2,0-0.2,0.1C15.8,60.2,15.8,60.3,15.9,60.3L15.9,60.3z"></path> </g> </g> <g> <g> <path class="st2" d="M19.2,62.5c0.6-0.3,1.2-0.6,1.8-1c0.6-0.4,1.3-0.7,1.9-1c0.2-0.1,0-0.3-0.1-0.3c-0.6,0.4-1.3,0.7-1.9,1 c-0.6,0.4-1.2,0.6-1.8,1C18.9,62.3,19,62.6,19.2,62.5L19.2,62.5z"></path> </g> </g> <g> <g> <path class="st2" d="M18.5,63.5c0.1,0.1,0.1,0.3,0.1,0.4c0,0.2,0.1,0.4,0.1,0.5c0.1,0.4,0.2,0.7,0.3,1.1 c0.2,0.7,0.5,1.4,0.6,2.1c0,0.1,0.1,0.1,0.1,0.1l0,0c0.1,0,0.2-0.2,0.1-0.3l0,0c-0.1-0.1-0.3,0.1-0.2,0.2l0,0 c0-0.1,0.1-0.2,0.1-0.3l0,0l0.1,0.1c-0.1-0.8-0.4-1.5-0.7-2.3c-0.1-0.4-0.2-0.8-0.3-1.2c-0.1-0.3-0.1-0.7-0.3-0.9 C18.6,63.2,18.4,63.4,18.5,63.5L18.5,63.5z"></path> </g> </g> <g> <g> <path class="st2" d="M15.5,63.9c0.2,0,0.3-0.1,0.5-0.2c0.2-0.1,0.4-0.1,0.6-0.2c0.4-0.1,0.8-0.3,1.2-0.4c0.2,0,0.1-0.3-0.1-0.3 c-0.4,0.1-0.8,0.2-1.2,0.4c-0.2,0.1-0.4,0.1-0.6,0.2c-0.2,0.1-0.3,0.2-0.5,0.2c-0.1,0-0.1,0.1-0.1,0.1 C15.4,63.9,15.4,64,15.5,63.9L15.5,63.9z"></path> </g> </g> </g> <g class="st4"> <path class="st2" d="M31.7,78.8C31.7,78.7,31.7,78.7,31.7,78.8c0-0.1,0-0.2,0-0.2s0.1,0,0.1-0.1s0-0.1,0-0.2c0,0,0,0,0-0.1l0,0 c0.1-0.1,0.2-0.2,0.1-0.3l0,0c0.1,0,0.2,0,0.2-0.1c0.1,0,0.1,0.1,0.1,0.1h0.1c0-0.1,0.1-0.1,0.1-0.1l0,0c0.1,0.1,0.2,0.2,0.2,0.3 c0,0,0,0.1-0.1,0.1l0,0h0.1c0.1,0,0.2,0.1,0.1,0.3c0,0.2-0.2,0.2-0.3,0.2c0,0.1,0,0.1,0,0.1c0.1,0.2,0.1,0.3-0.1,0.4 c-0.1,0-0.1,0.1,0,0.1c-0.1,0.1-0.2,0.2-0.2,0.4c0,0.3,0,0.3-0.2,0.4c0,0,0,0,0,0.1s-0.1,0.3,0,0.4c0.2,0.3,0,0.5-0.2,0.8 c-0.1,0-0.1,0-0.2-0.1c0,0.1,0.1,0.1,0,0.2c0,0-0.1,0,0,0.1c0.2,0.2,0.1,0.3-0.1,0.4c-0.1,0-0.1,0.1-0.1,0.2 c-0.1,0.1-0.2,0.2-0.1,0.4c0,0,0,0,0,0.1c-0.1,0.1-0.2,0.1-0.3,0.3c-0.1,0.1-0.2,0.1-0.3,0.1c-0.1,0-0.1-0.1,0-0.1v-0.1h-0.1 h-0.1c-0.1,0-0.1-0.1-0.2-0.1c0,0-0.1-0.1,0-0.1h0.1c0.1,0,0.1,0,0-0.1c0-0.1,0.1-0.1,0.1-0.1l0,0c-0.1,0-0.1,0.1-0.1,0.1 c-0.1-0.2-0.1-0.2,0.1-0.4c0-0.1,0.1-0.1,0.1-0.1l0,0c-0.1,0-0.1,0.1-0.2,0l0,0c-0.1-0.2,0.2-0.2,0.2-0.3c0-0.1-0.1-0.2,0-0.3 c0.1,0,0.1,0.1,0.1,0.1l0,0c0-0.2,0.1-0.2,0.2-0.2l0,0c0-0.1,0-0.1,0-0.2c0,0,0,0,0-0.1s-0.1-0.1,0-0.2c0-0.2-0.2-0.3,0.1-0.5 c-0.4-0.2-0.8-0.3-1.2-0.4c-0.9-0.4-1.8-0.7-2.6-1.2c-0.3-0.1-0.6-0.3-0.8-0.4c-0.1-0.1-0.3-0.1-0.4-0.2c0.2-0.1,0.4,0.1,0.5,0.1 c0.6,0.2,1.1,0.5,1.7,0.8s1.2,0.5,1.8,0.8c0.3,0.1,0.6,0.3,1,0.4H31c0-0.1,0.1-0.1,0.1-0.1c0-0.1,0.1-0.1,0.2-0.1c0,0,0,0,0-0.1 s-0.1-0.1,0-0.2v-0.1c0.1-0.1,0.2-0.2,0.2-0.3c0,0,0.1,0,0.2-0.1l0,0C31.8,78.8,31.8,78.8,31.7,78.8z"></path> <path class="st2" d="M19.9,78.6c0.1,0.2,0.1,0.5,0.1,0.7c0,0.8-0.2,1.6-0.3,2.3c0,0.2-0.1,0.4,0,0.7c0.2,0,0.2-0.2,0.3-0.3 c0.4-0.7,0.7-1.4,1-2c0.2-0.5,0.5-1,0.8-1.5c0.1-0.1,0.1-0.3,0.3-0.3c0,0,0,0,0.1,0c0,0.1,0.1,0.1,0,0.2c0,0.1-0.1,0.1-0.1,0.1 c-0.6,0.9-1,1.9-1.4,2.8c-0.2,0.4-0.4,0.8-0.6,1.1c-0.1,0.1-0.1,0.1-0.2,0.1s-0.1-0.1-0.2-0.2c0-0.1,0-0.2,0-0.3 c0.1-0.4,0.1-0.7,0.1-1.1c0.1-0.6,0.2-1.3,0.2-1.9c0-0.1,0-0.1,0-0.2s-0.1-0.1-0.1,0c-0.1,0.1-0.2,0.3-0.3,0.4 c-0.3,0.5-0.6,1.1-0.9,1.7c-0.1,0.1-0.2,0.2-0.3,0.3c-0.2,0.2-0.4,0.1-0.5-0.1s-0.1-0.5-0.1-0.7c0-0.3,0-0.6-0.1-0.9 c-0.1-0.2-0.1-0.2-0.3-0.1c-0.2,0.2-0.4,0.4-0.6,0.6s-0.5,0.1-0.7,0c0,0-0.1,0-0.1-0.1c-0.3-0.3-0.6-0.5-1-0.5 c-0.1,0-0.2,0-0.3,0c-0.2,0-0.2-0.1-0.1-0.3c0.1,0.1,0.2,0.1,0.3,0.1c0.2,0,0.3,0,0.5,0.1c0.3,0.1,0.5,0.2,0.7,0.4 c0.2,0.2,0.4,0.2,0.7,0c0.2-0.2,0.4-0.3,0.5-0.5c0.1-0.1,0.3-0.1,0.4,0s0.1,0.2,0.1,0.3c0.1,0.3,0.1,0.6,0.1,0.9 c0,0.2,0,0.4,0.1,0.5c0,0.2,0.1,0.2,0.2,0.1c0.2-0.2,0.3-0.4,0.4-0.6c0.3-0.5,0.6-1.1,0.9-1.6c0-0.1,0.1-0.1,0.1-0.2 C19.7,78.5,19.7,78.5,19.9,78.6z"></path> <path class="st2" d="M30.8,82.7C30.8,82.7,30.8,82.8,30.8,82.7c0.1,0.1,0.2,0.1,0.2,0c0.1,0,0.2,0,0.2,0.2c-0.1,0,0,0.1,0,0.1 c0,0.1,0,0.1,0,0.2c-0.1,0.3-0.1,0.3-0.2,0.3c0.1,0,0.1-0.1,0.2-0.1c0,0.2-0.1,0.3-0.3,0.3c-0.1,0,0,0.1,0,0.1 c0,0.1,0,0.1-0.1,0.1V84c0,0.1,0,0.1-0.1,0.1c-0.1,0.1-0.1,0.2,0,0.3l0,0c0,0.1-0.2,0.2-0.2,0.3c0,0.1,0.1,0.2,0,0.3 c-0.1,0.1-0.1,0.3,0,0.4c-0.1,0.2-0.1,0.4-0.2,0.5c0,0.1,0,0.1,0,0.2c0,0,0,0,0,0.1l0,0c0,0,0,0-0.1,0c0,0,0,0-0.1,0 c0-0.1-0.1-0.2-0.2-0.3c0,0,0,0,0-0.1v-0.1c0,0,0,0,0,0.1l0,0c0,0,0,0-0.1,0.1c-0.1,0-0.1,0-0.1,0s0,0.1-0.1,0.1l0,0 c-0.1,0-0.1,0-0.1-0.1c-0.1,0-0.1,0-0.1,0s0,0,0,0.1c0,0,0,0-0.1,0c0-0.1-0.1-0.1-0.1-0.2s0-0.1,0-0.2v-0.1c0-0.1,0-0.1,0.1-0.1 c0,0,0-0.1,0.1-0.1c0.2,0,0.1-0.1,0.1-0.2c0,0,0,0,0-0.1c0.1,0,0.2,0.1,0.3,0.1c0,0,0.1,0,0.1,0.1c0,0,0,0,0,0.1l0,0 c0-0.1,0-0.1,0-0.1c0-0.1,0-0.1,0.1-0.2l0.1-0.1c-0.1-0.1-0.1-0.3,0.1-0.3l0,0c-0.1,0-0.2-0.1-0.2-0.2c-0.1-0.2-0.2-0.4,0.1-0.5 c0,0,0,0,0-0.1c-0.1-0.3-0.1-0.3,0.2-0.4c-0.2-0.3-0.2-0.4,0.2-0.5c0,0,0.1,0,0.1-0.1s0-0.2,0-0.3c0-0.1,0-0.1,0.1-0.1 c0,0,0,0,0.1,0l0,0c0,0,0.1,0,0.1-0.1c0,0,0,0,0.1,0C30.7,82.6,30.8,82.6,30.8,82.7z"></path> <path class="st2" d="M29.1,85.9L29.1,85.9c-0.2,0.1-0.5,0-0.7-0.1c-0.5-0.2-1.1-0.3-1.6-0.4c-0.2-0.1-0.5-0.1-0.7-0.2 c0,0,0,0-0.1,0c-0.4-0.1-0.8-0.2-1.2-0.3c-0.5-0.1-1-0.2-1.5-0.3c-0.5-0.1-1.1-0.2-1.6-0.3c-0.8-0.1-1.5-0.2-2.3-0.4 c-1.1-0.2-2.2-0.3-3.2-0.4c-0.5-0.1-1-0.1-1.4-0.2v-0.1c0.1-0.1,0.2-0.1,0.3-0.1c1.2,0.1,2.5,0.3,3.7,0.5 c0.9,0.1,1.7,0.3,2.6,0.4c0.3,0,0.5,0.1,0.8,0.1c0.9,0.2,1.7,0.3,2.6,0.5c0.5,0.1,1.1,0.2,1.6,0.4c0.6,0.1,1.2,0.3,1.8,0.5 c0.3,0.1,0.5,0.2,0.8,0.2C28.9,85.7,29,85.8,29.1,85.9z"></path> <path class="st2" d="M22,84.2c-0.5-0.1-1-0.1-1.4-0.2c-1.8-0.3-3.6-0.5-5.4-0.7c-0.2,0-0.3,0-0.5,0c0-0.1,0.1-0.2,0.2-0.2 c1.3,0.2,2.6,0.3,3.9,0.5c1.2,0.2,2.5,0.4,3.7,0.6c0.1,0,0.1,0,0.2,0c0,0.1-0.1,0.1-0.2,0.1C22.3,84.2,22.1,84.2,22,84.2z"></path> <path class="st2" d="M26.7,78c-0.1,0-0.3-0.1-0.4-0.2c0.1,0.1,0.2,0.1,0.3,0.2c-0.7-0.3-1.4-0.7-2.1-1.1s-1.4-0.7-2-1.1 c-0.8-0.4-1.5-0.8-2.2-1.3c-0.7-0.4-1.5-0.9-2.2-1.3c-0.1-0.1-0.2-0.1-0.1-0.3c0.2,0,0.3,0.1,0.4,0.2c1.5,0.9,2.9,1.8,4.4,2.6 c0.9,0.5,1.7,1,2.6,1.4c0.4,0.2,0.7,0.4,1.1,0.6C26.5,77.8,26.7,77.9,26.7,78z"></path> <path class="st2" d="M37.2,81.9L37.2,81.9c-0.5-0.2-1-0.3-1.5-0.4s-0.9-0.2-1.4-0.4C34,81,33.8,81,33.5,80.9 c-0.1,0-0.2,0-0.1-0.2c0.3,0,0.5,0.2,0.8,0.2c2.1,0.6,4.2,1.1,6.4,1.5c0.2,0,0.5,0.1,0.7,0.1c0.2,0.1,0.4,0.1,0.6,0.1 c1,0.2,1.9,0.3,2.9,0.4c0.3,0.1,0.7,0.1,1,0.2h0.1c0,0,0,0.1-0.1,0.1c-0.7-0.1-1.3-0.2-2-0.3c-0.7-0.1-1.4-0.2-2.1-0.3 c-0.6-0.1-1.2-0.2-1.8-0.3h-0.1c-0.1,0-0.2-0.1-0.3-0.1c-0.3,0-0.5-0.1-0.7-0.1c-0.1,0-0.1,0-0.2,0c-0.2,0-0.3-0.1-0.5-0.1 C37.8,82.1,37.5,82,37.2,81.9C37.3,81.9,37.3,81.9,37.2,81.9z"></path> <path class="st2" d="M26.7,78c-0.4-0.2-0.8-0.4-1.1-0.6c-0.9-0.5-1.9-1-2.8-1.5c-1.7-0.9-3.3-1.9-5-2.9c0.1-0.1,0.2-0.1,0.3,0 c0.7,0.4,1.3,0.8,2,1.2c0,0.1,0.2,0.1,0.2,0.2c0.9,0.5,1.8,1.1,2.8,1.6c0.6,0.3,1.3,0.7,1.9,1c0.7,0.3,1.3,0.7,2,1 c0.4,0.2,0.8,0.4,1.2,0.5c0.5,0.2,1,0.4,1.5,0.7c0.3,0.1,0.6,0.3,1,0.4c0.2,0.1,0.5,0.2,0.7,0.3c-0.1,0.1-0.1,0-0.2,0 c-1.1-0.4-2.1-0.8-3.1-1.3C27.5,78.4,27.1,78.2,26.7,78z"></path> <path class="st2" d="M22,84.2C21.9,84.2,21.9,84.1,22,84.2c0.2,0,0.3,0,0.5,0c0.1,0,0.2,0,0.2,0c0.4,0,0.8,0.1,1.2,0.2 c0.7,0.1,1.4,0.3,2,0.4s1.2,0.3,1.8,0.5c0.5,0.1,1,0.3,1.4,0.4c0,0.1,0,0.1,0,0.2c-2.2-0.7-4.4-1.2-6.7-1.6 C22.2,84.3,22.1,84.2,22,84.2z"></path> <path class="st2" d="M30.2,86.3L30.2,86.3c0.1-0.2,0.1-0.1,0.2-0.1c0.2,0.1,0.4,0.1,0.6,0.2h0.1c1,0.4,2.1,0.8,3.1,1.3 c0.5,0.2,1,0.5,1.5,0.7c0.3,0.1,0.6,0.3,0.9,0.4c0.4,0.2,0.9,0.5,1.3,0.7c0.3,0.2,0.7,0.4,1,0.5c0.5,0.3,1,0.6,1.6,0.9 c0.1,0.1,0.3,0.2,0.4,0.2c0.2,0.1,0.4,0.2,0.6,0.4c0.1,0,0.1,0.1,0.1,0.2c-0.2,0-0.3-0.1-0.5-0.2c-0.8-0.4-1.5-0.9-2.3-1.3 c-0.6-0.3-1.2-0.6-1.7-0.9s-1-0.5-1.5-0.7c-0.6-0.3-1.1-0.5-1.7-0.8c-0.5-0.2-1.1-0.4-1.6-0.7c-0.3-0.1-0.7-0.2-1-0.4 C31,86.6,30.6,86.5,30.2,86.3C30.3,86.4,30.3,86.4,30.2,86.3z"></path> <path class="st2" d="M31.2,79.9c-0.8-0.3-1.5-0.6-2.3-0.9c-0.8-0.4-1.6-0.8-2.5-1.2c-1.1-0.5-2.1-1.1-3.2-1.7s-2.1-1.2-3.1-1.8 c0,0-0.2,0-0.1-0.1c0.5,0.3,1,0.6,1.6,0.9c1.4,0.8,2.8,1.6,4.3,2.3c1.4,0.7,2.9,1.4,4.4,2C30.6,79.6,30.9,79.8,31.2,79.9 L31.2,79.9z"></path> <path class="st2" d="M14.7,83.3c0.1,0,0.1,0,0.2,0c2.2,0.3,4.4,0.5,6.6,0.9c0.9,0.2,1.8,0.3,2.6,0.5c0.6,0.1,1.1,0.2,1.7,0.4 c0.1,0,0.2,0.1,0.2,0.1c-0.4-0.1-0.8-0.2-1.2-0.2c-1-0.2-2-0.4-3.1-0.6c-1.6-0.3-3.1-0.5-4.7-0.7C16.3,83.6,15.5,83.5,14.7,83.3 C14.7,83.4,14.7,83.4,14.7,83.3z"></path> <path class="st2" d="M29.1,86.3L29.1,86.3c0.1-0.1,0.2-0.1,0.2-0.1c0.1,0,0.1,0,0.2,0h0.1c0,0,0,0,0.1,0.1c0,0.1,0.2,0.1,0.3,0.2 v0.1c0,0-0.1,0,0,0.1c0,0.1,0,0.3-0.1,0.4c-0.1,0,0,0.1,0,0.1c0,0.1,0,0.1-0.1,0.1l0,0c0,0,0.1,0.1,0,0.1c0,0,0,0-0.1,0.1v0.1 c-0.1,0-0.2,0-0.1,0.1v0.1h-0.1c0,0.1,0,0.1,0.1,0.1h0.1l0,0c-0.1,0.1-0.2,0.2-0.4,0.2c0,0,0-0.1-0.1,0c-0.1,0-0.1,0-0.1-0.1 c0,0,0,0-0.1,0l0,0v0.1c-0.1,0-0.3,0-0.3-0.1s0-0.2,0-0.3l0.1-0.1c0.1-0.1,0.2-0.2,0.2-0.4l0,0c0-0.1,0-0.1,0.1-0.1 c0.1-0.1,0-0.2,0-0.3l0,0c0,0,0.1-0.1,0-0.1C29,86.7,29,86.5,29.1,86.3C29.1,86.4,29.1,86.4,29.1,86.3z"></path> <path class="st2" d="M24.1,79c-0.1,0-0.1,0.1-0.2,0.2c-0.4,0.7-0.7,1.4-1.1,2.1c-0.3,0.7-0.6,1.3-1,1.9c0,0.1-0.1,0.1-0.1,0.2 c-0.1,0.1-0.2,0.1-0.3-0.1v-0.1c0.3-0.2,0.4-0.5,0.6-0.8c0.3-0.6,0.6-1.3,1-1.9c0.3-0.6,0.5-1.2,0.9-1.7c0,0,0,0,0-0.1 c0.1-0.1,0.1-0.2,0.2-0.1c0.1,0,0.1,0.1,0.1,0.2C24.1,78.8,24.1,78.9,24.1,79C24.1,78.9,24.1,79,24.1,79z"></path> <path class="st2" d="M31.4,86.8c0.7,0.2,1.4,0.6,2.2,0.9c1.2,0.5,2.4,1.1,3.5,1.7c0.8,0.4,1.7,0.9,2.5,1.3 c0.7,0.4,1.4,0.8,2.1,1.2c0,0.2-0.1,0-0.1,0c-0.3-0.1-0.5-0.3-0.8-0.4c-1.2-0.7-2.3-1.3-3.5-1.9c-0.8-0.4-1.7-0.8-2.5-1.2 c-1-0.5-2-0.9-3-1.3C31.7,86.9,31.5,86.9,31.4,86.8L31.4,86.8z"></path> <path class="st2" d="M24.1,78.9c0-0.1,0-0.2,0-0.3c-0.2,0.2-0.2,0.3-0.3,0.5c-0.6,1.1-1.1,2.2-1.7,3.3c-0.1,0.2-0.2,0.3-0.3,0.5 c-0.1,0.2-0.2,0.3-0.4,0.4l0,0v-0.1c0-0.1,0.1-0.1,0.2-0.1c0.4-0.7,0.8-1.5,1.2-2.2c0.4-0.7,0.7-1.5,1.1-2.1 c0-0.1,0.1-0.1,0.1-0.2c0.1-0.1,0.2-0.1,0.2,0s0.1,0.1,0.1,0.2s0,0.2-0.1,0.2C24.1,79.1,24.1,78.9,24.1,78.9z"></path> <path class="st2" d="M24.2,79c0-0.1,0-0.2,0-0.3c0-0.1,0-0.1,0-0.1c0.1,0.1,0.1,0.2,0.1,0.3c0,0.6-0.2,1.2-0.3,1.8 c-0.2,0.8-0.3,1.5-0.5,2.3c0,0.1-0.1,0.2,0,0.2c0,0.1,0,0.1-0.1,0.2c-0.1,0-0.1,0.1-0.2,0c0-0.2,0-0.4,0.1-0.7 c0.1-0.6,0.3-1.3,0.4-1.9c0.1-0.5,0.2-0.9,0.3-1.4C24.1,79.3,24.1,79.1,24.2,79z"></path> <path class="st2" d="M21.5,83.1c0,0.1-0.1,0.1-0.2,0.1c-0.1-0.2,0-0.3,0-0.5c0.1-0.8,0.3-1.7,0.5-2.5c0.1-0.6,0.2-1.1,0.3-1.7 v-0.1c0-0.1,0-0.1,0-0.2c0.2,0.1,0.1,0.3,0.1,0.5c-0.1,0.8-0.2,1.5-0.4,2.3c-0.1,0.6-0.3,1.2-0.4,1.9 C21.5,83,21.5,83.1,21.5,83.1z"></path> <path class="st2" d="M25.7,79.9c-0.4,0.6-0.8,1.3-1.1,2c-0.3,0.5-0.6,1.1-0.9,1.6c-0.2,0.2-0.2,0.2-0.4,0.1v-0.1 c0.1,0,0.2-0.1,0.3-0.3c0.3-0.5,0.6-1,0.8-1.5c0.4-0.7,0.7-1.4,1.1-2c0.1-0.1,0.1-0.2,0.3-0.1C25.8,79.8,25.9,79.9,25.7,79.9z"></path> <path class="st2" d="M36.7,89c-0.5-0.2-1-0.5-1.5-0.7c-0.6-0.3-1.3-0.6-1.9-0.8c-0.7-0.3-1.5-0.6-2.2-0.9c0-0.1,0.1-0.1,0.2-0.1 s0.1,0.1,0.2,0.1c0.5,0.2,1,0.4,1.5,0.6c0.6,0.3,1.2,0.5,1.8,0.8C35.4,88.3,36.1,88.6,36.7,89L36.7,89z"></path> <path class="st2" d="M23.3,83.5L23.3,83.5c-0.2-0.2-0.1-0.6,0-0.9c0.2-1,0.4-2,0.6-2.9c0.1-0.3,0.1-0.5,0.1-0.8c0,0,0,0,0-0.1 c0.1,0,0,0.1,0.1,0.1c0,0.4-0.2,0.9-0.2,1.3c-0.2,1-0.5,2-0.6,3.1C23.3,83.4,23.3,83.5,23.3,83.5z"></path> <path class="st2" d="M25.7,79.9c0-0.1,0-0.2,0-0.3c0,0,0,0,0.1,0c0.2,0.2,0.1,0.4,0.1,0.6c-0.1,0.5-0.2,1-0.3,1.5 c-0.1,0.5-0.2,0.9-0.3,1.4c0,0,0,0.1-0.1,0.1c-0.1-0.2-0.1-0.3-0.1-0.5c0.1-0.8,0.3-1.5,0.5-2.3C25.7,80.3,25.8,80.1,25.7,79.9z"></path> <path class="st2" d="M17.7,79.5c0-0.1-0.1-0.1-0.1-0.2c-0.1-0.2-0.3-0.2-0.5,0s-0.4,0.4-0.7,0.6C16.2,80,16,80,15.9,79.8 c-0.3-0.4-0.7-0.5-1.2-0.5c-0.1,0-0.1,0-0.2,0c-0.1,0-0.1-0.1-0.1-0.2c0.2,0,0.4,0.1,0.6,0.1c0.4,0,0.6,0.2,0.9,0.5 s0.4,0.3,0.7,0c0.2-0.2,0.4-0.3,0.5-0.5s0.3-0.1,0.4,0C17.7,79.2,17.7,79.4,17.7,79.5z"></path> <path class="st2" d="M22.1,78.3c-0.3,0.1-0.4,0.4-0.5,0.7c-0.5,1-1,2.1-1.5,3.1c-0.1,0.1-0.2,0.3-0.3,0.4c0,0,0,0.1-0.1,0v-0.1 c0.3-0.3,0.4-0.7,0.6-1c0.2-0.5,0.4-0.9,0.7-1.4c0,0,0,0,0.1-0.1c0.1-0.2,0.2-0.3,0.2-0.5c0,0,0-0.1,0.1-0.1 c0.1-0.1,0.2-0.3,0.2-0.4C21.7,78.7,21.8,78.4,22.1,78.3C22,78.2,22.1,78.1,22.1,78.3z"></path> <path class="st2" d="M22.1,78.5c0,0.4-0.1,0.8-0.1,1.3c-0.2,1-0.4,2-0.6,3c0,0.2,0,0.4-0.1,0.5v0.1c-0.1-0.3,0-0.6,0-0.9 c0.2-1.1,0.5-2.3,0.6-3.4C22,78.8,22.1,78.7,22.1,78.5C22.1,78.5,22.1,78.4,22.1,78.5z"></path> <path class="st2" d="M27.2,81.2c-0.3,0.2-0.4,0.5-0.6,0.7c-0.3,0.4-0.6,0.9-0.9,1.3c-0.1,0.1-0.1,0.2-0.3,0.2 c-0.1,0-0.1,0-0.2-0.1c0-0.1,0-0.1,0.1-0.2c0.2-0.1,0.3-0.3,0.4-0.4c0.4-0.5,0.7-1,1-1.6c0-0.1,0.1-0.1,0.1-0.2 c0.1-0.1,0.2-0.1,0.3,0C27.3,81.1,27.3,81.2,27.2,81.2z"></path> <path class="st2" d="M25.3,83.1c0-0.5,0.1-0.9,0.2-1.3c0.1-0.6,0.3-1.2,0.4-1.8c0-0.1,0-0.2-0.1-0.3v-0.1 c0.2,0.2,0.2,0.4,0.1,0.6c-0.1,0.8-0.3,1.6-0.5,2.4c0,0.1-0.1,0.3,0,0.4C25.5,83.1,25.4,83.1,25.3,83.1z"></path> <path class="st2" d="M23.4,83.4l0.1-0.1c0.7-1.1,1.2-2.3,1.9-3.4c0.1-0.1,0.1-0.2,0.3-0.3c0,0.1,0,0.1,0,0.2 c-0.6,0.9-1,1.9-1.6,2.9c-0.1,0.2-0.3,0.5-0.4,0.7C23.5,83.4,23.5,83.5,23.4,83.4z"></path> <path class="st2" d="M23.4,83.4c0.1,0,0.1-0.1,0.2-0.1c0.4-0.6,0.8-1.4,1.2-2c0.3-0.5,0.5-1,0.8-1.4c0-0.1,0.1-0.1,0.1-0.2 c0.1,0,0.1-0.1,0.2,0v0.1c0,0,0,0-0.1,0s-0.1,0.1-0.2,0.1c-0.6,0.9-1,1.9-1.6,2.9c-0.1,0.2-0.3,0.5-0.4,0.7 c-0.1,0.1-0.2,0.2-0.3,0.2v-0.1C23.3,83.4,23.4,83.4,23.4,83.4z"></path> <path class="st2" d="M19.9,78.6c-0.2-0.1-0.3,0.1-0.5,0.2c-0.4,0.5-0.6,1.1-1,1.7c-0.1,0.2-0.2,0.4-0.4,0.6l-0.1,0.1 c-0.1,0-0.1-0.1,0-0.2c0.1,0.1,0.1,0,0.2,0c0.2-0.2,0.3-0.5,0.5-0.7c0.3-0.5,0.5-1.1,0.9-1.6c0.1-0.1,0.1-0.2,0.3-0.2 C19.9,78.5,19.9,78.5,19.9,78.6z"></path> <path class="st2" d="M39.9,82.4c0.2-0.1,0.4,0,0.6,0c1,0.2,2.1,0.4,3.1,0.5c0.1,0,0.3,0,0.4,0.1c0,0,0.1,0,0.1,0.1 c-0.5,0-1.1-0.1-1.6-0.2c-0.8-0.1-1.6-0.3-2.4-0.4C40,82.5,40,82.5,39.9,82.4z"></path> <path class="st2" d="M33.5,80.7c0,0.1,0.1,0.1,0.2,0.1c0.2,0.1,0.5,0.2,0.7,0.3c0,0.1-0.1,0-0.1,0C34,81,33.8,81,33.6,80.9 c-0.1,0-0.1-0.1-0.2,0c0,0.1-0.1,0.3-0.1,0.4c0.1,0.1,0.1,0.2,0,0.3c-0.1,0.1-0.1,0.3-0.3,0.4c0,0,0,0-0.1,0 c0-0.1,0.1-0.2,0.1-0.3c0-0.1,0-0.2,0-0.2l0,0c0-0.2,0.2-0.3,0.2-0.4c-0.1,0.2-0.1,0.3-0.2,0.4c-0.1,0-0.1,0.2-0.2,0.2 c-0.1,0-0.1-0.1,0-0.1c0.1-0.2,0.1-0.4,0.2-0.5c0.1-0.1,0.1-0.3,0.2-0.4c0-0.1,0-0.1,0.1-0.2C33.2,80.5,33.3,80.7,33.5,80.7z"></path> <path class="st2" d="M31.4,86.6c-0.1,0-0.2-0.1-0.3,0c0,0,0,0-0.1,0c0-0.1,0-0.2,0.1-0.2s0.2-0.1,0.2-0.2s0.1-0.3,0.1-0.4v-0.1 l0,0l0,0c-0.1,0.2-0.1,0.4-0.2,0.6c-0.1,0-0.1,0-0.2,0c-0.1-0.1,0-0.2,0.1-0.3c0.1-0.1,0.1-0.2,0.2-0.2c0.2-0.2,0.2-0.5,0.4-0.8 c0-0.1,0-0.2,0.1-0.2c0,0.3-0.1,0.5-0.2,0.8c0,0.1-0.1,0.2-0.1,0.3c0,0,0.1,0,0,0.1c-0.1,0.2-0.1,0.4-0.2,0.6 C31.3,86.4,31.3,86.5,31.4,86.6z"></path> <path class="st2" d="M31.6,85.8C31.6,85.7,31.6,85.7,31.6,85.8c0.1-0.3,0.2-0.6,0.4-0.9c-0.1,0.2-0.1,0.4-0.2,0.6 c0.1,0,0.1-0.2,0.3-0.2c0,0.1-0.1,0.2-0.1,0.4c0,0.1,0.1-0.1,0.1,0S32,85.8,32,85.8s0,0.1-0.1,0.2c-0.1,0,0-0.1,0-0.2 c-0.1,0.1-0.1,0.3-0.3,0.5c0-0.1,0-0.2,0.1-0.3C31.6,85.9,31.7,85.8,31.6,85.8z"></path> <path class="st2" d="M25.3,83.1c0.1,0,0.1-0.1,0.2-0.2c0.5-0.6,0.8-1.3,1.3-1.9c0-0.1,0.1-0.1,0.1-0.2c0.1,0.1-0.1,0.2-0.1,0.2 c-0.4,0.6-0.8,1.2-1.2,1.7C25.5,82.8,25.4,83,25.3,83.1c-0.1-0.1-0.1-0.1-0.1,0c0,0,0,0,0-0.1C25.3,83.2,25.3,83.2,25.3,83.1z"></path> <path class="st2" d="M28.6,82.2c-0.3,0.1-0.4,0.2-0.6,0.4c-0.1,0.1-0.2,0.2-0.4,0.3c-0.1,0-0.2,0.1-0.2,0c-0.1-0.1,0-0.2,0.1-0.2 c0.1-0.1,0.2-0.1,0.3-0.2c0.2-0.1,0.3-0.3,0.5-0.3C28.4,82.1,28.5,82.1,28.6,82.2C28.7,82.1,28.7,82.1,28.6,82.2 C28.7,82.2,28.7,82.2,28.6,82.2z"></path> <path class="st2" d="M27.2,81.2c0-0.1,0-0.1,0-0.2l0,0c0.2,0,0.2,0.2,0.2,0.3c0,0.3,0,0.5,0,0.8c0,0.2,0,0.4,0,0.5s0,0.1-0.1,0.2 c-0.1-0.1-0.1-0.3-0.2-0.4c0-0.3,0-0.7,0.1-1C27.2,81.3,27.2,81.2,27.2,81.2z"></path> <path class="st2" d="M45.9,83.3c-0.6,0-1.2-0.1-1.8-0.2c-0.7-0.1-1.4-0.2-2-0.3c-0.1,0-0.1,0-0.2,0l0,0c1.2,0.2,2.4,0.3,3.5,0.5 C45.6,83.2,45.8,83.2,45.9,83.3z"></path> <path class="st2" d="M32,83c0.1-0.2,0.1-0.3,0.2-0.5c0,0.1,0,0.2,0,0.3c0,0.2-0.2,0.4-0.2,0.7c0.1,0.1-0.1,0.2-0.1,0.3 c0,0.2-0.2,0.4-0.3,0.6c0-0.2,0.1-0.4,0.1-0.6c0-0.1,0-0.1-0.1-0.2c0-0.2,0-0.3,0.1-0.4C32,83.1,32,83,32,83z"></path> <path class="st2" d="M27.3,82.6c-0.1-0.3,0-0.5,0-0.8c0-0.2,0-0.3,0-0.5c0-0.1,0-0.3-0.1-0.3c0-0.1,0.1,0,0.1,0 c0.1,0.1,0.1,0.3,0.1,0.4c0,0.3-0.1,0.6-0.1,1C27.3,82.5,27.3,82.6,27.3,82.6C27.4,82.7,27.4,82.7,27.3,82.6L27.3,82.6z"></path> <path class="st2" d="M19.8,78.9c0.1,0.1,0.1,0.2,0.1,0.3c0,0.8-0.2,1.5-0.2,2.3c0,0.2,0,0.4-0.1,0.5c0,0.1,0,0.1-0.1,0.2 c0-0.5,0.1-0.9,0.1-1.4C19.7,80.1,19.8,79.5,19.8,78.9z"></path> <path class="st2" d="M33.4,80.9c0.1-0.1,0.2,0,0.2,0c0.2,0.1,0.5,0.2,0.7,0.2c0.5,0.1,0.9,0.3,1.4,0.4c0.2,0,0.3,0,0.4,0.2 C35.3,81.4,34.3,81.2,33.4,80.9z"></path> <path class="st2" d="M31.2,86.1L31.2,86.1c0.1,0.1,0.1,0.2,0,0.2c0,0.1-0.1,0.1-0.1,0.2c-0.3-0.1-0.5-0.2-0.8-0.2 c0-0.1,0-0.1-0.1-0.2c0.2,0.1,0.4,0.1,0.5,0.2c0.1,0,0.2,0.1,0.2-0.1c0-0.1,0-0.1,0.1-0.2c0.1,0,0-0.2,0.1-0.2 c0.1-0.1,0.1-0.3,0.2-0.4c0,0,0,0,0.1,0c0,0.1-0.1,0.3-0.1,0.4C31.2,85.9,31.1,85.9,31.2,86.1C31.1,86.1,31.1,86.1,31.2,86.1z"></path> <path class="st2" d="M30.9,81.5c-0.1,0.1-0.1,0-0.1-0.1s0-0.1,0-0.2c0.2-0.1,0.2-0.2,0.1-0.4c-0.1-0.2,0-0.3,0.2-0.3l0.1,0.1 c0.1,0.1,0.1,0.1,0,0.2l0,0c0.1,0.1,0.3,0.2,0.1,0.3l0,0l0,0c-0.1,0.1-0.2,0.1-0.3,0c0,0.1,0.1,0.1,0,0.2 C30.9,81.4,30.9,81.4,30.9,81.5z"></path> <path class="st2" d="M35.7,85.1c-0.2,0-0.1,0.1-0.2,0.2c-0.1,0.1,0,0.2-0.1,0.3c0.1-0.4,0.3-0.7,0.3-1.1 c-0.1,0.4-0.3,0.8-0.4,1.2c-0.1-0.2,0-0.3,0.1-0.5c0-0.2,0.1-0.3,0.1-0.5c0-0.1,0-0.2,0.1-0.2l0,0c0.1,0,0.1-0.1,0.2-0.2 c0.1,0.1-0.1,0.3,0,0.4C35.9,84.8,35.8,85,35.7,85.1z"></path> <path class="st2" d="M26,85.2c0.1-0.1,0.3,0,0.4,0c0.7,0.2,1.3,0.3,1.9,0.5c0,0,0.1,0,0.1,0.1c-0.2,0-0.5-0.1-0.7-0.2 C27.2,85.5,26.6,85.3,26,85.2z"></path> <path class="st2" d="M29.3,85.3L29.3,85.3c-0.1-0.1,0-0.2,0.1-0.2c0.2,0,0.1-0.1,0.1-0.2c0,0,0.1,0,0.1-0.1h-0.1 c-0.1-0.1-0.1-0.2,0.1-0.2c0.1,0,0.2,0.1,0.3,0.2l0,0c0,0.1-0.2,0.2,0,0.3c0,0,0,0.1-0.1,0.1s-0.1,0-0.1,0.1s-0.1,0.1-0.1,0.2 l0,0h-0.1C29.5,85.3,29.4,85.3,29.3,85.3z"></path> <path class="st2" d="M28.6,82.2C28.7,82.2,28.7,82.2,28.6,82.2c0.1-0.1,0.1-0.1,0.1-0.1c0.1,0.1,0.2,0.2,0.3,0.3 c0.1,0.1,0.2,0.1,0.3,0.1c0.2,0,0.4,0,0.5,0.1l0.1,0.1c0,0.1-0.1,0-0.1,0c-0.1,0-0.2,0-0.3,0c-0.3,0-0.5-0.1-0.6-0.3 C28.8,82.4,28.7,82.3,28.6,82.2z"></path> <path class="st2" d="M36.7,89C36.7,88.9,36.7,88.9,36.7,89c0.4,0.1,0.8,0.3,1.1,0.5c0.4,0.2,0.8,0.5,1.3,0.7c0,0,0,0.1,0,0 c-0.4-0.2-0.9-0.5-1.3-0.7C37.3,89.3,37,89.1,36.7,89z"></path> <path class="st2" d="M28.8,82.2C28.7,82.2,28.7,82.2,28.8,82.2c-0.1,0-0.1,0-0.1,0c-0.3-0.1-0.5,0.1-0.7,0.3 c-0.1,0.1-0.3,0.2-0.4,0.3c-0.1,0.1-0.2,0-0.1-0.1h0.1c0.3-0.1,0.5-0.4,0.7-0.5C28.4,81.9,28.6,81.9,28.8,82.2z"></path> <path class="st2" d="M44.1,83.1C44.1,83.1,44,83.1,44.1,83.1c0.6,0,1.2,0.1,1.8,0.2c0,0,0.1,0,0.1,0.1c-0.3,0-0.6-0.1-0.9-0.1 C44.7,83.3,44.4,83.2,44.1,83.1z"></path> <path class="st2" d="M33.2,80.6c-0.1,0.1-0.1,0.3-0.2,0.4c-0.1,0-0.1,0.2-0.2,0.3c0,0.1,0,0.1-0.1,0.2s-0.1,0.3-0.2,0.4 c-0.1,0,0-0.1,0-0.1c0.1-0.3,0.2-0.5,0.3-0.8c0-0.1,0.1-0.1,0.1-0.2s0-0.1,0.1-0.2c0,0,0-0.1,0.1,0 C33.1,80.5,33.1,80.5,33.2,80.6z"></path> <path class="st2" d="M35.6,84.1c0,0.2-0.1,0.3-0.1,0.5l0,0v0.1c0,0.1-0.1,0.2-0.1,0.2c-0.1,0.1-0.1,0.2-0.2,0.2 c0-0.3,0.2-0.5,0.2-0.8c-0.1,0.2-0.1,0.4-0.3,0.6c0-0.1,0-0.2,0-0.2c0-0.1,0.2-0.2,0-0.2l0.2-0.3c0.1,0,0,0.1,0,0.1 c0.1,0,0.1-0.1,0.1-0.2C35.6,84.2,35.5,84.1,35.6,84.1z"></path> <path class="st2" d="M29.1,88.3c0-0.2,0.2-0.3,0.4-0.2c0.1,0.1,0.1,0.3-0.1,0.3C29.3,88.4,29.2,88.4,29.1,88.3z"></path> <path class="st2" d="M32.8,78.2c-0.1,0-0.1,0-0.2,0c-0.1,0-0.1,0.1-0.2,0.1c0-0.2,0.1-0.2,0.3-0.2c-0.2-0.1-0.2-0.2-0.2-0.4 c0.1-0.1,0.2-0.1,0.3,0s0.1,0.2,0,0.3C32.8,78.1,32.8,78.2,32.8,78.2z"></path> <path class="st2" d="M38.1,85.1C38.2,85.1,38.2,85.1,38.1,85.1c0.1-0.2,0.1-0.3,0.2-0.3c0.1-0.2,0.1-0.4,0.2-0.5 c-0.1,0.4-0.2,0.7-0.4,1.1c0,0.1-0.1,0.1-0.1,0.1s0,0-0.1,0C37.8,85.3,38,85.2,38.1,85.1C38.2,85.1,38.1,85.1,38.1,85.1z"></path> <path class="st2" d="M31.2,83.5c-0.1,0-0.1,0.1-0.1,0.1c-0.1,0.1-0.1,0.1-0.2,0.1s-0.1-0.1-0.1-0.2s0.1-0.1,0.2-0.1 s0.1,0,0.1-0.1s0.1-0.1,0.1-0.2C31.3,83.3,31.2,83.4,31.2,83.5z"></path> <path class="st2" d="M32.9,80.5c0,0.1-0.1,0.3-0.2,0.4c0.1-0.1,0-0.2-0.1-0.2s-0.3-0.1-0.4-0.1c0.1-0.1,0.2,0,0.2,0 s-0.1,0-0.2-0.1c-0.1,0-0.1-0.1,0-0.2C32.5,80.3,32.7,80.4,32.9,80.5z"></path> <path class="st2" d="M33.3,81.6c0-0.1,0-0.2,0-0.3c0.1,0,0.1-0.2,0.2-0.2c0.1,0.1-0.1,0.2-0.1,0.4c0.1-0.1,0.2,0,0.2,0.1 c-0.2,0-0.2,0.1-0.3,0.2C33.3,81.7,33.3,81.6,33.3,81.6z"></path> <path class="st2" d="M40.9,86.5c-0.1,0.2-0.1,0.4-0.2,0.6c-0.1,0.2-0.1,0.4-0.2,0.5c0,0,0,0.1-0.1,0c0,0,0-0.1,0-0.2 c0.2-0.5,0.3-0.9,0.5-1.4c0-0.1,0-0.3,0.1-0.4c0,0.2-0.1,0.3-0.1,0.5C41,86.3,41,86.4,40.9,86.5z"></path> <path class="st2" d="M43.3,87.4c0.1-0.3,0.1-0.5,0.3-0.8l0,0c-0.3,0.6-0.4,1.2-0.7,1.8c0,0,0,0.1-0.1,0.1c0-0.2,0.1-0.3,0.1-0.5 c0-0.1,0-0.2,0.1-0.2C43.1,87.7,43.2,87.5,43.3,87.4z"></path> <path class="st2" d="M32,83.8c0-0.1,0-0.2,0.1-0.3c0.1-0.1,0.2-0.3,0.3-0.5c0-0.1,0-0.1,0.1-0.2c0,0,0,0,0.1,0c0,0,0,0,0,0.1 c-0.1,0.3-0.2,0.5-0.2,0.7C32.2,83.7,32.1,83.8,32,83.8C32,83.7,32,83.8,32,83.8z"></path> <path class="st2" d="M29.8,82.7c-0.2,0-0.4,0-0.6,0c-0.1,0-0.2-0.1-0.2-0.2c0.2,0.1,0.4,0,0.6,0.1C29.7,82.5,29.8,82.6,29.8,82.7 z"></path> <path class="st2" d="M31.1,85.5c0-0.1,0-0.1,0-0.2c-0.1,0.3-0.2,0.6-0.3,0.8c-0.1-0.1,0-0.2,0-0.3c0.1,0,0.1-0.1,0.1-0.2 c0.1-0.2,0.1-0.5,0.3-0.7C31.2,85.1,31.2,85.3,31.1,85.5L31.1,85.5z"></path> <path class="st2" d="M36.2,81.7c-0.1-0.1-0.3-0.1-0.4-0.2c0.4,0.1,0.9,0.2,1.3,0.3c0,0,0.1,0,0.1,0.1 C36.8,81.8,36.5,81.7,36.2,81.7z"></path> <path class="st2" d="M39,90.2L39,90.2c0.6,0.3,1.1,0.6,1.6,0.8l0,0l0,0C40,90.8,39.5,90.5,39,90.2z"></path> <path class="st2" d="M38.4,85.3c0,0.1,0,0.1-0.1,0.2c0,0,0,0.1-0.1,0.1s0-0.1,0-0.1c0.1-0.3,0.2-0.6,0.3-0.8c0,0,0,0,0,0.1 s-0.1,0.2-0.1,0.4C38.5,85.2,38.5,85.3,38.4,85.3z"></path> <path class="st2" d="M29,86.4c0.2,0.2,0.2,0.3,0,0.4h-0.1c-0.1-0.1-0.2-0.2-0.1-0.3C28.9,86.4,28.9,86.4,29,86.4z"></path> <path class="st2" d="M31.4,82.4L31.4,82.4c-0.1-0.1-0.2-0.2-0.1-0.3c0-0.1,0.1-0.1,0.2-0.1h0.1C31.7,82.2,31.6,82.4,31.4,82.4z"></path> <path class="st2" d="M28.8,87.4C28.8,87.4,28.8,87.5,28.8,87.4c0.2,0.3,0.1,0.4-0.1,0.4h-0.1C28.4,87.6,28.5,87.5,28.8,87.4z"></path> <path class="st2" d="M31.8,78.9c0,0.1,0.1,0.1,0,0.3c-0.1,0.1-0.2,0.2-0.3,0.1c0-0.1,0-0.2,0.1-0.3 C31.7,78.9,31.7,78.9,31.8,78.9L31.8,78.9z"></path> <path class="st2" d="M31.7,83.3c0.1-0.2,0.2-0.5,0.2-0.7c0,0,0,0,0.1,0c0,0.2-0.1,0.3-0.1,0.5C31.9,83.2,31.9,83.3,31.7,83.3 C31.8,83.3,31.8,83.3,31.7,83.3L31.7,83.3L31.7,83.3L31.7,83.3z"></path> <path class="st2" d="M32,77.9c0,0.1,0.2,0.1,0.2,0.2c0,0.2-0.2,0.1-0.3,0.2C31.8,78.1,31.8,78,32,77.9z"></path> <path class="st2" d="M31.3,82.9c-0.1,0-0.2-0.1-0.2-0.2c0-0.2,0.2-0.2,0.3-0.2C31.5,82.7,31.5,82.8,31.3,82.9z"></path> <path class="st2" d="M33.1,81.4L33.1,81.4c0.1,0.1,0,0.2,0,0.2c-0.1,0.2-0.2,0.4-0.3,0.6c0,0,0,0-0.1,0c0.1-0.2,0.2-0.5,0.2-0.7 C32.9,81.5,32.9,81.4,33.1,81.4C33,81.4,33,81.5,33.1,81.4z"></path> <path class="st2" d="M29.8,87.1c-0.2-0.1-0.1-0.2-0.1-0.3c0-0.1,0.1,0,0.2,0C30,86.9,30,87,29.8,87.1z"></path> <path class="st2" d="M31.3,85.4L31.3,85.4c0.1-0.3,0.2-0.5,0.3-0.7c0,0,0,0,0.1,0c-0.1,0.2-0.1,0.4-0.2,0.6l0,0 C31.4,85.3,31.4,85.4,31.3,85.4z"></path> <path class="st2" d="M35.7,85.1c0.1-0.2,0-0.3,0.1-0.5l0,0c0,0,0-0.1,0.1,0c0.1,0,0.1-0.1,0.1-0.1C35.9,84.7,35.8,85,35.7,85.1 C35.7,85.2,35.7,85.2,35.7,85.1C35.7,85.2,35.7,85.2,35.7,85.1z"></path> <path class="st2" d="M38.7,82.2L38.7,82.2c0.4,0.1,0.6,0.1,0.9,0.2c0,0,0,0.1-0.1,0C39.3,82.3,39,82.3,38.7,82.2z"></path> <path class="st2" d="M46.3,87c0,0.2-0.1,0.3-0.1,0.5c-0.1,0.3-0.2,0.6-0.3,0.9c0.1-0.3,0.1-0.6,0.2-0.9 C46.2,87.3,46.1,87.1,46.3,87z"></path> <path class="st2" d="M37.2,81.9c0.1-0.1,0.2,0,0.3,0c0.3,0.1,0.5,0.1,0.8,0.2c-0.1,0.1-0.3,0-0.4,0C37.7,82,37.4,82,37.2,81.9z"></path> <path class="st2" d="M32.4,79.6L32.4,79.6c-0.2-0.1-0.2-0.2-0.1-0.3c0-0.1,0.1-0.1,0.2-0.1h0.1C32.7,79.5,32.6,79.6,32.4,79.6z"></path> <path class="st2" d="M40.8,85.9c0.1-0.3,0.2-0.5,0.3-0.8l0,0C41.1,85.4,41,85.6,40.8,85.9L40.8,85.9z"></path> <path class="st2" d="M29.5,84.9c0,0,0-0.1,0.1-0.1c0-0.1,0.1-0.1,0.2,0c0.1,0,0.1,0.1,0.1,0.1c0,0.1-0.1,0.1-0.2,0.1 C29.6,84.9,29.6,84.9,29.5,84.9L29.5,84.9z"></path> <path class="st2" d="M35.2,84.5c-0.5-0.2-1-0.4-1.6-0.5l0,0C34.2,84.1,34.7,84.3,35.2,84.5L35.2,84.5z"></path> <path class="st2" d="M45.7,88.7c0.1-0.4,0.3-0.8,0.4-1.1c0,0,0,0,0.1,0C46,88,45.9,88.4,45.7,88.7z"></path> <path class="st2" d="M37.9,86.8c0.1-0.3,0.2-0.5,0.3-0.8C38.1,86.3,38,86.5,37.9,86.8L37.9,86.8z"></path> <path class="st2" d="M42.9,88.1c0-0.1,0-0.2,0.1-0.3c0.1-0.3,0.2-0.6,0.3-0.9c0,0,0-0.1,0.1-0.1c-0.1,0.3-0.2,0.5-0.3,0.8v0.1 C43,87.8,43,88,42.9,88.1z"></path> <path class="st2" d="M45.4,88c-0.5-0.2-1-0.4-1.5-0.5l0,0C44.4,87.7,44.9,87.8,45.4,88L45.4,88z"></path> <path class="st2" d="M32.1,80.5c-0.1,0-0.2-0.1-0.2-0.2s0.1-0.2,0.2-0.2c0.1,0,0.1,0.1,0.1,0.1C32.3,80.4,32.3,80.5,32.1,80.5 L32.1,80.5z"></path> <path class="st2" d="M38.7,85.7c0.5,0.2,1,0.4,1.6,0.5l0,0C39.7,86.1,39.2,85.9,38.7,85.7L38.7,85.7L38.7,85.7z"></path> <path class="st2" d="M31.8,78.6c0,0-0.1,0-0.1,0.1c-0.1-0.2,0-0.3,0.2-0.4c0,0.1,0.1,0.1,0.1,0.2s0.1,0.1,0,0.1 C31.9,78.5,31.8,78.5,31.8,78.6z"></path> <path class="st2" d="M32.1,80.5c0.1-0.1,0.1-0.2,0.2-0.3l0,0c0,0.1,0.1,0.2,0.2,0.2c0.1,0,0.2,0.1,0.3,0.1 c-0.2,0-0.3-0.1-0.5-0.1C32.2,80.5,32.2,80.6,32.1,80.5z"></path> <path class="st2" d="M32.4,81.4c0-0.3,0.1-0.5,0.2-0.7c0,0.2,0,0.4-0.1,0.5v-0.1C32.5,81.2,32.4,81.3,32.4,81.4z"></path> <path class="st2" d="M31.5,79.4c0,0.1,0.3,0.1,0.1,0.3c0,0-0.1,0-0.1,0.1c-0.1,0.1-0.2,0-0.2,0.1C31.3,79.5,31.3,79.5,31.5,79.4z "></path> <path class="st2" d="M41.1,86.2c0-0.3,0.2-0.6,0.3-0.8C41.3,85.6,41.2,85.9,41.1,86.2L41.1,86.2z"></path> <path class="st2" d="M30.7,82.3c0,0-0.1,0-0.1,0.1l0,0c0-0.1,0-0.1,0-0.2s0.1-0.1,0.2-0.1s0.1,0.1,0.1,0.2 C30.8,82.3,30.8,82.3,30.7,82.3L30.7,82.3L30.7,82.3z"></path> <path class="st2" d="M27.3,81h-0.1l0,0c0-0.1-0.1-0.1-0.1,0c-0.1,0.1-0.1,0.1-0.2,0.2l0,0c0-0.1,0.1-0.1,0.1-0.2 C27.1,80.8,27.2,80.8,27.3,81z"></path> <path class="st2" d="M27.4,82.6c0,0.1,0.1,0.1,0.2,0s0.2-0.2,0.3-0.2v0.1c-0.1,0.1-0.2,0.2-0.3,0.2c-0.1,0-0.1,0.1-0.1,0.2 c-0.1,0-0.1-0.1-0.1-0.1C27.3,82.7,27.3,82.7,27.4,82.6C27.3,82.6,27.3,82.6,27.4,82.6z"></path> <path class="st2" d="M40.6,86.3C40.6,86.3,40.7,86.3,40.6,86.3C40.7,86.3,40.7,86.3,40.6,86.3C40.7,86.3,40.7,86.3,40.6,86.3 c0.1,0.1,0,0.2,0,0.3c0,0,0,0,0.1,0.1c0,0.1,0,0.2-0.1,0.3c0,0.1-0.1,0.2-0.1,0.3l0,0c0-0.1,0.1-0.3,0.1-0.4s0-0.1-0.1-0.2 C40.5,86.6,40.6,86.4,40.6,86.3z"></path> <path class="st2" d="M31.8,78.9C31.7,78.9,31.7,78.9,31.8,78.9C31.7,78.8,31.8,78.8,31.8,78.9c0.1-0.1,0.1-0.2,0.2-0.2 c0.1,0,0.1,0,0.2,0c0.1,0.1,0,0.1,0,0.2l0,0l0,0C31.9,79.1,31.8,79,31.8,78.9z"></path> <path class="st2" d="M30.7,84c0-0.2,0.2-0.1,0.3-0.1c0.1,0.2,0.1,0.3-0.1,0.4v-0.1C30.8,84,30.8,84,30.7,84z"></path> <path class="st2" d="M32,81.3L32,81.3c-0.1,0.1-0.1,0.1-0.2,0.1l-0.1-0.1c-0.1-0.1-0.1-0.1,0-0.2s0.1,0,0.2,0 C31.9,81.2,31.9,81.2,32,81.3z"></path> <path class="st2" d="M40.6,86.3c0,0.1-0.1,0.2-0.1,0.4c-0.1,0.3-0.1,0.5-0.2,0.8C40.4,87.1,40.5,86.7,40.6,86.3z"></path> <path class="st2" d="M35.3,85c0-0.1,0-0.2,0.1-0.2s0.1-0.1,0.1-0.1c0,0.2-0.1,0.4-0.2,0.5h-0.1C35.3,85.1,35.4,85,35.3,85z"></path> <path class="st2" d="M43.5,86.6c0-0.2,0.1-0.4,0.2-0.6C43.7,86.2,43.6,86.4,43.5,86.6z"></path> <path class="st2" d="M32.1,83.8L32.1,83.8l0.2-0.2c0,0,0.1,0,0.1,0.1c0,0,0,0.1-0.1,0.1c-0.2,0.1-0.1,0.3-0.3,0.4 C32,84,32,83.9,32.1,83.8z"></path> <path class="st2" d="M45.6,89.5c0-0.2,0.1-0.5,0.2-0.7C45.8,89.1,45.7,89.3,45.6,89.5z"></path> <path class="st2" d="M32.7,81.6c0,0.2-0.1,0.4-0.2,0.6c0-0.2,0.1-0.3,0.1-0.5C32.6,81.7,32.7,81.7,32.7,81.6L32.7,81.6z"></path> <path class="st2" d="M29.9,86.6L29.9,86.6c-0.1-0.2-0.2-0.2-0.2-0.3c0-0.1,0.1-0.1,0.2-0.1c0,0,0,0,0.1,0s0.1,0.1,0.2,0.2l0,0 l0,0C30.1,86.5,30,86.5,29.9,86.6z"></path> <path class="st2" d="M38.4,85.3c0-0.1,0-0.2,0-0.2c0.1,0,0.1,0,0.1-0.1s0.1-0.1,0.1-0.2C38.5,85,38.5,85.1,38.4,85.3 C38.5,85.3,38.5,85.4,38.4,85.3z"></path> <path class="st2" d="M43,87.6L43,87.6c0.1-0.1,0.1-0.1,0.1-0.2v-0.1h0.1c-0.1,0.1-0.1,0.3-0.2,0.4c0,0,0,0-0.1,0 C43,87.7,43.1,87.7,43,87.6z"></path> <path class="st2" d="M35.8,83.9c0.1-0.2,0.1-0.4,0.2-0.6C36,83.6,35.9,83.8,35.8,83.9C35.8,84,35.8,83.9,35.8,83.9z"></path> <path class="st2" d="M38.7,85.7c-0.2-0.2-0.2-0.3,0-0.5c0,0.1,0,0.2-0.1,0.3C38.6,85.5,38.6,85.5,38.7,85.7 C38.7,85.6,38.7,85.6,38.7,85.7L38.7,85.7z"></path> <path class="st2" d="M31.4,86.8L31.4,86.8c-0.4-0.1-0.8-0.2-1.2-0.4l0,0C30.6,86.5,31,86.6,31.4,86.8z"></path> <path class="st2" d="M31.3,84.2c0-0.2,0-0.4,0.1-0.5C31.5,83.9,31.5,84.1,31.3,84.2z"></path> <path class="st2" d="M30.8,81.9c-0.1,0-0.1,0-0.2,0v-0.1c0-0.1,0.1-0.1,0.1-0.2c0.1,0,0.1-0.1,0.2,0C31,81.7,31,81.8,30.8,81.9 C30.8,81.8,30.8,81.9,30.8,81.9z"></path> <path class="st2" d="M35.8,83.9L35.8,83.9c0,0.2,0,0.3-0.1,0.5l0,0c-0.1,0.1,0,0.2-0.2,0.3l0,0C35.6,84.4,35.7,84.2,35.8,83.9z"></path> <path class="st2" d="M37.9,86c0,0.2-0.1,0.3-0.2,0.5C37.7,86.3,37.8,86.1,37.9,86C38,85.9,37.9,85.9,37.9,86z"></path> <path class="st2" d="M32.2,83.6C32.2,83.6,32.2,83.7,32.2,83.6c0-0.2,0.1-0.5,0.2-0.7c0,0.2-0.2,0.3-0.1,0.5 C32.4,83.5,32.3,83.6,32.2,83.6z"></path> <path class="st2" d="M32.6,77.8L32.6,77.8c-0.2,0.1-0.2,0.2-0.3,0.2c0-0.1,0-0.1-0.1-0.2C32.3,77.7,32.4,77.7,32.6,77.8z"></path> <path class="st2" d="M32.2,83.6c0-0.1,0-0.1,0.1-0.2c0.1,0,0.1-0.2,0.2-0.2c-0.1,0.1-0.1,0.3-0.1,0.4 C32.4,83.7,32.3,83.7,32.2,83.6C32.3,83.7,32.3,83.7,32.2,83.6z"></path> <path class="st2" d="M35.9,84.6L35.9,84.6c0-0.2,0-0.4,0.1-0.6c0,0,0,0,0.1,0C36,84.2,35.9,84.4,35.9,84.6z"></path> <path class="st2" d="M43.1,87.3c0,0.2-0.1,0.3-0.2,0.5C42.9,87.6,43,87.4,43.1,87.3z"></path> <path class="st2" d="M40.6,86.6c0-0.1,0.1-0.2,0.1-0.4c0-0.1,0.1-0.3,0.1-0.4c0,0,0,0,0,0.1C40.8,86.2,40.8,86.4,40.6,86.6z"></path> <path class="st2" d="M43.1,88.4c0-0.3,0.2-0.6,0.3-0.9c0,0.1-0.1,0.3-0.1,0.4C43.2,88.1,43.2,88.3,43.1,88.4z"></path> <path class="st2" d="M29.4,87.9C29.4,87.8,29.4,87.8,29.4,87.9c0-0.1,0-0.1,0-0.2c0,0,0,0,0-0.1l0.1-0.1c0,0,0,0,0.1,0 C29.7,87.7,29.7,87.8,29.4,87.9z"></path> <path class="st2" d="M28.5,85.8l-0.1-0.1c0.2,0.1,0.5,0.1,0.7,0.2c0,0.1-0.1,0.1-0.1,0.2c0-0.1,0-0.2-0.1-0.2 C28.7,85.9,28.6,85.9,28.5,85.8z"></path> <path class="st2" d="M41.9,86.8c0.3,0.1,0.6,0.2,1,0.3c-0.1,0-0.1,0-0.5-0.1C42.2,86.9,42.1,86.9,41.9,86.8L41.9,86.8L41.9,86.8z "></path> <path class="st2" d="M28.5,87.9c0,0.1,0,0.1,0.1,0.2s0,0.1-0.1,0.1C28.4,88.1,28.4,88,28.5,87.9z"></path> <path class="st2" d="M33,81.4C33,81.4,33,81.5,33,81.4C32.9,81.5,32.9,81.4,33,81.4c0-0.2,0.1-0.5,0.2-0.6 C33.2,81,33.1,81.2,33,81.4z"></path> <path class="st2" d="M31.6,83.9c0,0.2-0.1,0.3-0.1,0.5C31.5,84.2,31.6,84.1,31.6,83.9z"></path> <path class="st2" d="M31.6,83.1c0,0.1-0.1,0.3-0.1,0.4c0-0.1,0-0.1,0-0.2c-0.1,0-0.1,0.1-0.1,0.1l0,0 C31.4,83.3,31.4,83.2,31.6,83.1C31.5,83.1,31.6,83.1,31.6,83.1z"></path> <path class="st2" d="M30.4,82.8C30.3,82.8,30.3,82.8,30.4,82.8c-0.2-0.2-0.2-0.2,0-0.3c0,0,0,0,0.1,0.1 C30.5,82.6,30.4,82.7,30.4,82.8z"></path> <path class="st2" d="M37.1,85.1c-0.3-0.1-0.6-0.2-0.9-0.3l0,0C36.5,84.9,36.8,85,37.1,85.1L37.1,85.1z"></path> <path class="st2" d="M32.7,81.7L32.7,81.7c-0.1,0,0-0.1,0-0.3c0-0.1,0.1-0.1,0.1-0.2c0.1,0,0,0.1,0,0.2 C32.8,81.4,32.7,81.5,32.7,81.7z"></path> <path class="st2" d="M36.2,83.2c-0.1,0.3-0.2,0.5-0.3,0.8l0,0C36,83.8,36.1,83.5,36.2,83.2L36.2,83.2z"></path> <path class="st2" d="M45.6,88.6c0,0.1-0.1,0.2-0.1,0.3C45.5,88.8,45.6,88.7,45.6,88.6C45.7,88.5,45.6,88.6,45.6,88.6z"></path> <path class="st2" d="M43.2,87.4L43.2,87.4c0-0.1,0.1-0.3,0.1-0.4C43.4,87.1,43.3,87.2,43.2,87.4z"></path> <path class="st2" d="M28.9,87.3h-0.1c-0.2-0.2-0.1-0.3,0.1-0.4l0,0C28.9,87.1,28.9,87.2,28.9,87.3z"></path> <path class="st2" d="M41.1,86.2L41.1,86.2c0,0.1,0,0.3-0.1,0.3C40.9,86.4,40.9,86.3,41.1,86.2C41,86.2,41,86.2,41.1,86.2z"></path> <path class="st2" d="M40.6,87c0-0.1,0.1-0.2,0.1-0.3c0.1-0.2,0.1-0.4,0.2-0.6l0,0C40.8,86.4,40.7,86.7,40.6,87z"></path> <path class="st2" d="M40.9,86.1L40.9,86.1c0-0.2,0.1-0.3,0.2-0.5v0.1l0,0C41,85.9,41,86,40.9,86.1L40.9,86.1z"></path> <path class="st2" d="M31.4,85.2L31.4,85.2c0,0.1-0.1,0.2,0,0.4c0,0.1,0,0.2-0.2,0.2c0-0.1,0-0.2,0.1-0.3 C31.3,85.4,31.4,85.3,31.4,85.2z"></path> <path class="st2" d="M31.4,83.4L31.4,83.4c0,0.2-0.1,0.4-0.2,0.5c0,0,0,0-0.1,0C31.2,83.7,31.3,83.6,31.4,83.4z"></path> <path class="st2" d="M40.6,86c0,0.1,0,0.2-0.1,0.3C40.4,86.2,40.5,86,40.6,86z"></path> <path class="st2" d="M46.4,87.6c-0.1,0.2-0.1,0.4-0.2,0.5l0,0C46.2,87.9,46.3,87.8,46.4,87.6C46.3,87.6,46.4,87.6,46.4,87.6z"></path> <path class="st2" d="M45.8,88c-0.1,0.1-0.1,0.3-0.2,0.4l0,0C45.6,88.3,45.7,88.1,45.8,88C45.7,88,45.8,88,45.8,88z"></path> <path class="st2" d="M43.6,86.7C43.6,86.7,43.6,86.6,43.6,86.7c0.1-0.3,0.1-0.5,0.2-0.8l0,0C43.8,86.2,43.7,86.4,43.6,86.7z"></path> <path class="st2" d="M29,88.1C29,88.1,29,88.2,29,88.1c0,0.2-0.1,0.2-0.2,0.2l-0.1-0.1C28.8,88.1,28.8,88.1,29,88.1 C28.9,88.1,28.9,88.1,29,88.1z"></path> <path class="st2" d="M40.7,86.3c-0.1-0.1-0.1-0.2,0-0.3C40.7,86.1,40.7,86.2,40.7,86.3L40.7,86.3z"></path> <path class="st2" d="M35.3,85c0,0.1,0,0.1,0,0.2c-0.1,0.2-0.1,0.4-0.2,0.6l0,0c0-0.1,0.1-0.3,0.1-0.4 C35.3,85.2,35.3,85.1,35.3,85z"></path> <path class="st2" d="M46.2,88.2c0-0.1,0.1-0.3,0.2-0.4C46.4,88,46.3,88.1,46.2,88.2z"></path> <path class="st2" d="M43,87.6c0,0.1,0,0.1,0,0.2c-0.1,0.2-0.1,0.4-0.2,0.6l0,0c0-0.1,0.1-0.2,0.1-0.3C42.9,87.9,43,87.8,43,87.6z "></path> <path class="st2" d="M38.2,86.4c0.1-0.2,0.2-0.4,0.2-0.7l0,0C38.3,86,38.3,86.2,38.2,86.4L38.2,86.4z"></path> <path class="st2" d="M31.1,85.5L31.1,85.5c0,0.1-0.1,0.2,0,0.3c0,0.1,0,0.2-0.1,0.2C31,85.8,31,85.6,31.1,85.5z"></path> <path class="st2" d="M29.7,87.5c0-0.1-0.2,0-0.2-0.1c0.1,0,0.1-0.1,0.2-0.1h0.1C29.8,87.3,29.8,87.4,29.7,87.5z"></path> <path class="st2" d="M41.1,85.8L41.1,85.8c0.1-0.3,0.1-0.5,0.2-0.7l0,0C41.2,85.3,41.2,85.5,41.1,85.8z"></path> <path class="st2" d="M42,82.6C42,82.6,42,82.7,42,82.6c-0.2,0-0.4,0-0.6-0.1C41.6,82.6,41.8,82.6,42,82.6z"></path> <path class="st2" d="M21.2,79.4c0,0.2-0.1,0.3-0.2,0.5l0,0l0,0C21.1,79.7,21.2,79.6,21.2,79.4z"></path> <path class="st2" d="M38.6,84.3c-0.1,0.2-0.1,0.4-0.2,0.5c0.1-0.2,0.2-0.4,0.2-0.7C38.6,84.2,38.6,84.3,38.6,84.3z"></path> <path class="st2" d="M36.1,84.1C36,84.1,36,84.1,36.1,84.1c0-0.1,0-0.2,0.1-0.4C36.2,83.8,36.1,83.9,36.1,84.1z"></path> <path class="st2" d="M31.7,83.3L31.7,83.3c0,0.1,0,0.2-0.1,0.3C31.6,83.4,31.6,83.3,31.7,83.3z"></path> <path class="st2" d="M43.1,88.4c0.1-0.1,0.1-0.3,0.2-0.5c-0.1,0.2-0.1,0.4-0.2,0.7C43,88.6,43,88.5,43.1,88.4z"></path> <path class="st2" d="M46.3,87c0,0.1-0.1,0.3-0.1,0.4s0,0.1-0.1,0.1c0.1-0.2,0.2-0.4,0.2-0.7l0,0C46.3,86.9,46.3,86.9,46.3,87z"></path> <path class="st2" d="M40.7,87.3c0.1-0.2,0.1-0.4,0.2-0.6l0,0C40.9,86.9,40.8,87.1,40.7,87.3L40.7,87.3z"></path> <path class="st2" d="M43.6,87.2c0-0.1,0-0.2,0.1-0.3C43.7,87,43.6,87.1,43.6,87.2z"></path> <path class="st2" d="M37.9,86L37.9,86c0-0.2,0.1-0.3,0.1-0.4c0,0,0,0,0.1,0C38,85.7,38,85.8,37.9,86z"></path> <path class="st2" d="M38,86.1c-0.1,0.2-0.1,0.4-0.2,0.6l0,0C37.8,86.5,37.9,86.3,38,86.1L38,86.1z"></path> <path class="st2" d="M46.5,86.8c-0.1,0.2-0.1,0.4-0.2,0.6l0,0C46.3,87.2,46.4,87,46.5,86.8L46.5,86.8z"></path> <path class="st2" d="M43.8,86.4c0,0.1,0,0.2-0.1,0.4C43.7,86.6,43.8,86.5,43.8,86.4z"></path> <path class="st2" d="M35.4,85.6c0.1-0.1,0.1-0.2,0.1-0.3c-0.1,0.2-0.1,0.4-0.2,0.6l0,0C35.3,85.8,35.4,85.7,35.4,85.6z"></path> <path class="st2" d="M37.1,85.1L37.1,85.1c0.2,0,0.4,0.1,0.6,0.2l0,0C37.5,85.3,37.3,85.2,37.1,85.1z"></path> <path class="st2" d="M38.1,85.1C38,85.1,38.1,85,38.1,85.1c0.1-0.2,0.1-0.4,0.2-0.5l0,0C38.3,84.8,38.2,85,38.1,85.1z"></path> <path class="st2" d="M41.9,86.8L41.9,86.8c-0.2,0-0.4-0.1-0.6-0.2l0,0C41.5,86.7,41.7,86.7,41.9,86.8z"></path> <path class="st2" d="M46.1,88.6C46,88.8,46,89,45.9,89.2l0,0C45.9,88.9,46,88.8,46.1,88.6L46.1,88.6z"></path> <path class="st2" d="M40.5,86.5c-0.1,0.1-0.1,0.3-0.2,0.4C40.3,86.7,40.4,86.6,40.5,86.5z"></path> <path class="st2" d="M38.6,84.7L38.6,84.7c0-0.2,0.1-0.4,0.2-0.6l0,0C38.7,84.3,38.6,84.5,38.6,84.7z"></path> <path class="st2" d="M45.5,89.3c0.1-0.2,0.1-0.4,0.1-0.4S45.6,89.1,45.5,89.3s-0.1,0.4-0.1,0.4S45.4,89.5,45.5,89.3z"></path> <path class="st2" d="M32.3,83.7C32.3,83.6,32.4,83.6,32.3,83.7c0.1,0,0.1,0.1,0.1,0.2c-0.1,0.1-0.1,0-0.1,0 C32.3,83.7,32.3,83.7,32.3,83.7z"></path> <path class="st2" d="M30.8,85.5c-0.1-0.1-0.1,0-0.1,0c0-0.1,0.1-0.2,0.1-0.3C30.9,85.4,30.9,85.5,30.8,85.5z"></path> <path class="st2" d="M21.5,78.9c0,0.2-0.1,0.3-0.2,0.4l0,0l0,0C21.4,79.2,21.5,79,21.5,78.9z"></path> <path class="st2" d="M32.5,81.7L32.5,81.7c0,0.2,0,0.2-0.1,0.3C32.3,81.9,32.4,81.9,32.5,81.7C32.4,81.7,32.4,81.6,32.5,81.7 C32.5,81.6,32.5,81.6,32.5,81.7z"></path> <path class="st2" d="M35.6,84.1L35.6,84.1c0-0.1,0-0.3,0.1-0.4l0,0C35.7,83.8,35.7,84,35.6,84.1z"></path> <path class="st2" d="M31.8,83.3c-0.1,0.1,0,0.3-0.1,0.4C31.7,83.6,31.7,83.4,31.8,83.3L31.8,83.3z"></path> <path class="st2" d="M38,86.1L38,86.1c0-0.1,0-0.3,0.1-0.4C38.1,85.9,38.1,86,38,86.1z"></path> <path class="st2" d="M32.4,81.8c0,0.1,0,0.1,0,0.2c0,0,0,0.1-0.1,0.2C32.3,82,32.3,81.9,32.4,81.8z"></path> <path class="st2" d="M40.6,91.1C40.6,91,40.6,91,40.6,91.1c0.1,0,0.3,0.1,0.4,0.2C40.8,91.3,40.7,91.1,40.6,91.1z"></path> <path class="st2" d="M43,88.1c0,0.2-0.1,0.3-0.1,0.5l0,0l0,0C42.9,88.4,43,88.2,43,88.1z"></path> <path class="st2" d="M31.6,83.1C31.5,83.1,31.5,83.1,31.6,83.1c0-0.1,0-0.2,0-0.3C31.6,83,31.6,83,31.6,83.1z"></path> <path class="st2" d="M33,81.6c0-0.1,0-0.1,0.1-0.2c0,0,0,0,0.1-0.1C33.1,81.5,33.1,81.6,33,81.6C33.1,81.6,33,81.6,33,81.6z"></path> <path class="st2" d="M40.5,87.6c0-0.2,0.1-0.4,0.2-0.5C40.6,87.3,40.6,87.4,40.5,87.6z"></path> <path class="st2" d="M45.6,88.6L45.6,88.6c0-0.2,0-0.3,0.1-0.4C45.7,88.4,45.7,88.5,45.6,88.6z"></path> <path class="st2" d="M32.3,79.7c0.1,0,0.1,0.1,0.1,0.2S32.3,80,32.2,80s-0.1-0.1-0.1-0.2S32.2,79.7,32.3,79.7z"></path> <path class="st2" d="M31.7,80.2c0,0.1-0.1,0.1-0.2,0.1s-0.1-0.1-0.1-0.2s0.1-0.1,0.2-0.1C31.8,80.1,31.8,80.1,31.7,80.2z"></path> <path class="st2" d="M32.7,79c0,0.1-0.1,0.1-0.2,0.1c-0.1,0-0.1-0.1-0.1-0.2s0.1-0.1,0.2-0.1C32.7,78.9,32.7,78.9,32.7,79z"></path> <path class="st2" d="M32.9,78.5c0,0.1-0.1,0.1-0.2,0.1c-0.1,0-0.1-0.1-0.1-0.1C32.6,78.4,32.7,78.4,32.9,78.5 C32.9,78.3,32.9,78.4,32.9,78.5z"></path> <path class="st2" d="M32.1,80.9c0,0.1-0.1,0.1-0.2,0.1s-0.1-0.1-0.1-0.2s0.1-0.1,0.2-0.1C32,80.7,32.1,80.8,32.1,80.9z"></path> <path class="st2" d="M30.8,82.7c-0.1,0-0.1-0.1-0.2-0.1c0-0.1,0-0.2,0.1-0.2s0.1,0,0.1,0.1C30.9,82.6,30.9,82.7,30.8,82.7z"></path> <path class="st2" d="M32.4,78.5c0,0.1-0.1,0.1-0.2,0.1c-0.1,0-0.1-0.1-0.1-0.2s0.1-0.1,0.2-0.1C32.4,78.3,32.4,78.4,32.4,78.5z"></path> <path class="st2" d="M31.4,81.7c0,0.1,0.1,0.1,0.1,0.2s-0.1,0.1-0.2,0c-0.1,0-0.1-0.1-0.1-0.2C31.3,81.7,31.3,81.7,31.4,81.7z"></path> <path class="st2" d="M31.4,80.4c0,0.1-0.1,0.1-0.2,0.1s-0.1-0.1-0.1-0.2s0.1-0.1,0.2-0.1C31.4,80.2,31.4,80.3,31.4,80.4z"></path> <path class="st2" d="M31.2,81.7c-0.1,0.1-0.1,0.1-0.2,0c0-0.1,0-0.2,0-0.2c0.1-0.1,0.1-0.1,0.2,0C31.3,81.5,31.3,81.6,31.2,81.7 C31.2,81.6,31.1,81.6,31.2,81.7z"></path> <path class="st2" d="M31.9,79.5c-0.1,0.1-0.1,0-0.1,0c0-0.1-0.1-0.1,0-0.2s0.2-0.1,0.2,0C32.1,79.3,32.1,79.3,31.9,79.5 C31.9,79.4,31.9,79.4,31.9,79.5z"></path> <path class="st2" d="M31.7,81.7c0,0.1-0.1,0.1-0.1,0.1c-0.1,0-0.1-0.1-0.1-0.1c0-0.1,0.1-0.1,0.1-0.1 C31.7,81.6,31.8,81.6,31.7,81.7z"></path> <path class="st2" d="M31.4,81.4c-0.1,0-0.1-0.1-0.1-0.1S31.4,81.2,31.4,81.4c0.1-0.1,0.1,0,0.1,0S31.5,81.4,31.4,81.4z"></path> <path class="st2" d="M31.9,80.5c0,0.1-0.1,0.1-0.1,0.1c-0.1,0-0.1-0.1-0.1-0.1c0-0.1,0.1-0.1,0.1-0.1 C31.9,80.4,31.9,80.5,31.9,80.5z"></path> <path class="st2" d="M30.8,81.9c-0.1,0-0.1-0.1-0.1-0.1s0-0.1,0.1-0.1C30.9,81.7,30.9,81.8,30.8,81.9 C30.9,81.9,30.8,81.9,30.8,81.9z"></path> <path class="st2" d="M32.3,78c0-0.1,0.1-0.2,0.2-0.1C32.4,78.1,32.4,78.1,32.3,78z"></path> <path class="st2" d="M31.2,80.8c-0.1,0-0.2,0.1-0.2,0s0-0.1,0.1-0.1C31.2,80.7,31.2,80.7,31.2,80.8L31.2,80.8z"></path> <path class="st2" d="M31.4,80.7c-0.1,0-0.1-0.1-0.1-0.1c0-0.1,0.1-0.1,0.1-0.1c0.1,0,0.1,0,0.2,0.1c0,0.1,0,0.1,0,0.1 C31.5,80.7,31.5,80.7,31.4,80.7z"></path> <path class="st2" d="M32,78.9c-0.1,0-0.1,0.1-0.2,0v-0.1h0.1C32,78.8,32,78.9,32,78.9L32,78.9z"></path> <path class="st2" d="M31.1,82.1c-0.1,0-0.1,0.1-0.2,0c0-0.1,0-0.2,0.1-0.2S31.2,82,31.1,82.1z"></path> <path class="st2" d="M32.2,79.2C32.1,79.2,32.1,79.1,32.2,79.2c-0.1-0.2,0-0.2,0-0.2C32.3,79,32.3,79.1,32.2,79.2 C32.3,79.2,32.2,79.2,32.2,79.2z"></path> <path class="st2" d="M30.4,82.8c-0.1-0.1,0-0.2,0.1-0.3l0.1,0.1C30.6,82.7,30.6,82.8,30.4,82.8C30.4,82.7,30.4,82.7,30.4,82.8 L30.4,82.8z"></path> <path class="st2" d="M31.7,79.9L31.7,79.9c0-0.2,0.1-0.2,0.1-0.2s0.1,0.1,0,0.1C31.8,79.9,31.8,79.9,31.7,79.9z"></path> <path class="st2" d="M32,80C32,80,32.1,80,32,80c0.1,0.2,0,0.2,0,0.2c-0.1,0-0.1-0.1-0.1-0.1C31.9,80,31.9,80,32,80z"></path> <path class="st2" d="M31.6,79.7c-0.1,0-0.1,0-0.1-0.1c0,0,0-0.1,0.1-0.1C31.6,79.5,31.7,79.6,31.6,79.7L31.6,79.7z"></path> <path class="st2" d="M31.8,78.6c0-0.1-0.1-0.1,0-0.2c0.1,0,0.1,0,0.1,0.1S31.9,78.6,31.8,78.6z"></path> <path class="st2" d="M31.2,81.7c-0.1,0-0.1,0-0.1-0.1c0,0,0-0.1,0.1-0.1C31.2,81.5,31.2,81.5,31.2,81.7 C31.2,81.6,31.2,81.7,31.2,81.7z"></path> <path class="st2" d="M31.1,82.1c-0.1-0.2-0.2-0.1-0.2,0c-0.1-0.1,0-0.1,0-0.2c0.1,0,0.1-0.1,0.2,0S31.2,82,31.1,82.1z"></path> <path class="st2" d="M31.5,81c-0.1,0-0.1,0-0.1-0.1s0-0.1,0.1-0.1s0.2,0,0.1,0.1C31.6,80.9,31.5,80.9,31.5,81z"></path> <path class="st2" d="M31.9,79.5c-0.1,0-0.1-0.1-0.1-0.2C31.9,79.2,32,79.3,31.9,79.5C32,79.4,32,79.4,31.9,79.5z"></path> <path class="st2" d="M31.5,80l-0.1,0.1V80C31.4,79.9,31.4,79.9,31.5,80C31.5,79.9,31.5,79.9,31.5,80z"></path> <path class="st2" d="M32.5,78.7C32.5,78.7,32.4,78.8,32.5,78.7L32.5,78.7C32.4,78.7,32.4,78.7,32.5,78.7L32.5,78.7z"></path> <path class="st2" d="M31.4,80.7C31.4,80.7,31.3,80.6,31.4,80.7c0-0.1,0-0.1,0.1-0.1s0.1,0.1,0.1,0.1 C31.5,80.7,31.5,80.7,31.4,80.7z"></path> <path class="st2" d="M31.1,82.3l0.1,0.1C31.2,82.4,31.2,82.4,31.1,82.3C31.1,82.4,31,82.3,31.1,82.3 C31.1,82.3,31.1,82.2,31.1,82.3z"></path> <path class="st2" d="M30.9,81.5c-0.1,0-0.1-0.1-0.1-0.1c0-0.1,0.1-0.1,0.2,0C31,81.4,31,81.4,30.9,81.5z"></path> <path class="st2" d="M32.5,78.3c0-0.1,0.1-0.2,0.2-0.1C32.6,78.3,32.6,78.4,32.5,78.3z"></path> <path class="st2" d="M31.5,81C31.5,81,31.4,80.9,31.5,81c0.1-0.2,0.1-0.1,0.2-0.1C31.6,81,31.6,81,31.5,81z"></path> <path class="st2" d="M30.3,85.8c0,0.1-0.1,0.1-0.2,0.1S30,85.8,30,85.7s0.1-0.1,0.2-0.1C30.3,85.7,30.3,85.7,30.3,85.8z"></path> <path class="st2" d="M30.3,84.3c0,0.1-0.1,0.1-0.2,0.1S30,84.3,30,84.2s0.1-0.1,0.2-0.1C30.3,84.2,30.3,84.2,30.3,84.3z"></path> <path class="st2" d="M30.2,83.3c0.1,0,0.1,0.1,0.1,0.2s-0.1,0.1-0.2,0.1S30,83.5,30,83.4C30.1,83.3,30.1,83.3,30.2,83.3z"></path> <path class="st2" d="M30.1,84c0,0.1-0.1,0.1-0.2,0.1s-0.1-0.1-0.1-0.2s0.1-0.1,0.2-0.1S30.1,83.9,30.1,84z"></path> <path class="st2" d="M30.5,82.9c0.1,0,0.1,0.1,0.1,0.2s-0.1,0.1-0.2,0.1s-0.1-0.1-0.1-0.2C30.4,82.9,30.4,82.8,30.5,82.9z"></path> <path class="st2" d="M30.4,84.9c0.1,0,0.1,0.1,0.1,0.2s-0.1,0.1-0.2,0.1s-0.1-0.1,0-0.2C30.3,84.9,30.3,84.9,30.4,84.9z"></path> <path class="st2" d="M29.3,86.3c-0.1,0-0.1,0-0.2,0c0,0,0,0,0-0.1s0-0.2,0.1-0.2s0.1,0,0.1,0.1C29.4,86.2,29.4,86.2,29.3,86.3z"></path> <path class="st2" d="M29.3,85.3c0-0.1,0.1-0.2,0.2-0.1s0.1,0.2,0,0.3C29.5,85.5,29.4,85.4,29.3,85.3z"></path> <path class="st2" d="M30.4,84.2c0-0.1,0.1-0.1,0.2-0.1s0.1,0.1,0.1,0.2s-0.1,0.1-0.2,0.1C30.4,84.3,30.4,84.3,30.4,84.2z"></path> <path class="st2" d="M29.9,84.4c0,0.1-0.1,0.1-0.1,0.1c-0.1,0-0.1-0.1-0.1-0.1c0-0.1,0.1-0.1,0.1-0.1 C29.9,84.3,29.9,84.4,29.9,84.4z"></path> <path class="st2" d="M30.3,83.9C30.3,83.9,30.3,84,30.3,83.9c-0.2,0-0.2-0.1-0.2-0.2h0.1C30.3,83.8,30.4,83.8,30.3,83.9z"></path> <path class="st2" d="M29.7,86.1C29.7,86,29.7,86,29.7,86.1C29.7,86,29.7,86,29.7,86.1c-0.1-0.2,0-0.2,0.1-0.2s0.1,0,0.2,0.1 c0,0.1,0,0.1,0,0.2C29.8,86.1,29.8,86.2,29.7,86.1z"></path> <path class="st2" d="M29.9,85.4c0-0.1,0.1-0.1,0.1-0.1c0.1,0,0.1,0.1,0.1,0.1c0,0.1-0.1,0.1-0.1,0.1 C29.9,85.5,29.8,85.5,29.9,85.4z"></path> <path class="st2" d="M29.3,85.9c-0.1,0-0.1-0.1-0.1-0.1c0-0.1,0.1-0.1,0.1-0.1c0.1,0,0.1,0.1,0.1,0.1 C29.4,85.9,29.4,85.9,29.3,85.9z"></path> <path class="st2" d="M29.3,86.3c0-0.1,0.1-0.2,0-0.2s-0.1,0.1-0.2,0.1c0-0.1,0-0.2,0.1-0.2s0.2,0,0.2,0.1c0,0,0,0.1,0.1,0.1l0,0 l0,0C29.4,86.3,29.4,86.3,29.3,86.3z"></path> <path class="st2" d="M30.8,83.2c0.1,0,0.1,0.1,0.1,0.1c0,0.1-0.1,0.1-0.1,0.1s-0.1,0-0.1-0.1C30.6,83.2,30.7,83.2,30.8,83.2z"></path> <path class="st2" d="M29.5,86.3C29.5,86.2,29.5,86.2,29.5,86.3C29.5,86.2,29.5,86.2,29.5,86.3c0.1-0.1,0-0.2,0-0.3 c0.2-0.1,0.2,0,0.2,0.1s0,0.1-0.1,0.2C29.6,86.3,29.5,86.3,29.5,86.3z"></path> <path class="st2" d="M29.7,85.4c0.1,0,0.2,0.1,0.1,0.2c0,0.1-0.1,0.1-0.2,0.1C29.6,85.7,29.6,85.6,29.7,85.4 C29.6,85.5,29.6,85.5,29.7,85.4L29.7,85.4z"></path> <path class="st2" d="M29.6,86.3c0-0.1,0.1-0.1,0.1-0.2V86c0.1,0,0.1,0,0.2,0l0,0v0.1C29.8,86.3,29.7,86.2,29.6,86.3 C29.7,86.3,29.7,86.4,29.6,86.3L29.6,86.3z"></path> <path class="st2" d="M30.6,83.6l0.1,0.1c0,0.1-0.1,0.1-0.1,0.1c-0.1,0-0.1-0.1-0.1-0.1C30.5,83.6,30.5,83.6,30.6,83.6z"></path> <path class="st2" d="M31,83c0,0-0.1,0.1-0.1,0c0,0-0.1-0.1,0-0.1C30.9,82.9,31,82.8,31,83C31,82.9,31,82.9,31,83z"></path> <path class="st2" d="M30.1,85.1C30.1,85.2,30.1,85.2,30.1,85.1c-0.1,0-0.2,0-0.2-0.1s0.1-0.1,0.1,0C30.1,85,30.1,85.1,30.1,85.1z "></path> <path class="st2" d="M30.7,84c0.1-0.1,0.1-0.1,0.2,0s0,0.1-0.1,0.2C30.7,84.1,30.7,84,30.7,84z"></path> <path class="st2" d="M30.3,84.6C30.3,84.6,30.4,84.7,30.3,84.6c0,0.1-0.1,0.2-0.1,0.1v-0.1C30.2,84.6,30.2,84.5,30.3,84.6z"></path> <path class="st2" d="M29.9,84.8L29.9,84.8c0-0.1-0.1-0.2,0-0.2c0,0,0.1,0,0.1,0.1C30.1,84.8,30,84.8,29.9,84.8L29.9,84.8z"></path> <path class="st2" d="M29.7,85.9c0,0,0.1-0.1,0.1,0c0,0,0,0,0,0.1s-0.1,0.1-0.1,0.1C29.7,86,29.7,86,29.7,85.9z"></path> <path class="st2" d="M29.9,86.2L29.9,86.2c0.3-0.1,0.3-0.1,0.2,0.2l0,0C30,86.3,30,86.1,29.9,86.2L29.9,86.2z"></path> <path class="st2" d="M29.5,86c0.1,0,0.1,0,0.1,0.1s-0.1,0.1-0.1,0.1C29.5,86.1,29.4,86.1,29.5,86z"></path> <path class="st2" d="M30.6,84.5L30.6,84.5c0,0.1,0,0.2-0.1,0.1C30.5,84.7,30.5,84.6,30.6,84.5C30.5,84.5,30.5,84.5,30.6,84.5z"></path> <path class="st2" d="M29.6,85.5c0.1,0.1,0,0.2-0.1,0.2C29.5,85.6,29.5,85.5,29.6,85.5z"></path> <path class="st2" d="M30.2,85.5C30.2,85.5,30.2,85.4,30.2,85.5C30.2,85.4,30.2,85.3,30.2,85.5C30.3,85.4,30.3,85.4,30.2,85.5 C30.3,85.5,30.3,85.5,30.2,85.5z"></path> <path class="st2" d="M29.8,85.3C29.7,85.3,29.7,85.2,29.8,85.3C29.8,85.1,29.9,85.2,29.8,85.3C29.9,85.3,29.8,85.3,29.8,85.3z"></path> <path class="st2" d="M31.1,83C31.2,83,31.2,83.1,31.1,83c0,0.1,0,0.2-0.1,0.1C31,83.2,31,83.1,31.1,83C31.1,83.1,31.1,83,31.1,83 z"></path> <path class="st2" d="M30.4,82.8C30.4,82.8,30.3,82.7,30.4,82.8l0.1-0.1C30.5,82.7,30.5,82.7,30.4,82.8L30.4,82.8z"></path> <path class="st2" d="M30.5,83.4C30.5,83.4,30.4,83.5,30.5,83.4c-0.1,0-0.1,0-0.1-0.1C30.4,83.3,30.4,83.3,30.5,83.4L30.5,83.4z"></path> <path class="st2" d="M29.6,86.3C29.6,86.3,29.7,86.3,29.6,86.3c0.2,0,0.3,0,0.3,0.2C29.7,86.6,29.6,86.6,29.6,86.3z"></path> <path class="st2" d="M29.3,87.9c0,0.1-0.1,0.1-0.2,0.1S29,87.9,29,87.8s0.1-0.1,0.2-0.1C29.3,87.7,29.3,87.8,29.3,87.9z"></path> <path class="st2" d="M28.9,87.3c-0.2-0.1-0.2-0.2,0-0.3c0.1,0,0.2,0,0.2,0.2C29,87.3,29,87.3,28.9,87.3z"></path> <path class="st2" d="M29.7,87.2c0,0.1-0.1,0.2-0.2,0.1c0-0.1-0.1-0.1,0-0.2C29.6,87.1,29.7,87.2,29.7,87.2z"></path> <path class="st2" d="M29.5,86.5c0,0.1-0.1,0.1-0.1,0.1c-0.1,0-0.1-0.1-0.1-0.1c0-0.1,0.1-0.1,0.1-0.1 C29.5,86.4,29.5,86.4,29.5,86.5z"></path> <path class="st2" d="M29,87c-0.1-0.2,0.1-0.1,0.1-0.2c0.1,0,0.1,0.1,0.1,0.1C29.2,87,29.1,87.1,29,87z"></path> <path class="st2" d="M28.9,88.2c-0.1,0-0.1,0-0.2,0l0,0c0-0.1,0-0.1,0.1-0.2h0.1C29,88.1,29,88.1,28.9,88.2z"></path> <path class="st2" d="M29.1,87.5c0,0.1-0.1,0.1-0.1,0.1s-0.1,0,0-0.1C29,87.4,29,87.4,29.1,87.5C29.1,87.4,29.1,87.4,29.1,87.5z"></path> <path class="st2" d="M29.5,86.8C29.5,86.8,29.6,86.9,29.5,86.8c0,0.1-0.1,0.2-0.1,0.1c0,0-0.1-0.1,0-0.1 C29.4,86.8,29.4,86.8,29.5,86.8z"></path> <path class="st2" d="M29.5,87.7C29.4,87.8,29.4,87.8,29.5,87.7c-0.1,0-0.2-0.1-0.1-0.2s0.2,0,0.2,0 C29.6,87.6,29.6,87.7,29.5,87.7L29.5,87.7z"></path> <path class="st2" d="M29,87c0.1,0,0.1,0,0.2,0c0-0.1,0-0.1,0-0.1c0.1,0,0.1,0,0.1,0.1s0,0.1-0.1,0.2C29.1,87.1,29.1,87,29,87z"></path> <path class="st2" d="M28.9,88.2c0-0.1,0-0.1,0-0.2c-0.1,0-0.1,0.1-0.1,0.1c-0.1-0.1,0-0.2,0.1-0.2C28.9,87.9,29,88,28.9,88.2 C29,88.1,28.9,88.2,28.9,88.2z"></path> <path class="st2" d="M29.3,87.2C29.3,87.2,29.4,87.3,29.3,87.2l-0.1,0.1C29.2,87.3,29.2,87.3,29.3,87.2 C29.2,87.2,29.3,87.2,29.3,87.2z"></path> <path class="st2" d="M26.9,81.2L26.9,81.2c-0.2,0.5-0.6,1-0.9,1.5c-0.1,0.2-0.3,0.4-0.4,0.6c0,0.1-0.1,0.1-0.1,0 c0.5-0.6,0.9-1.2,1.3-1.9C26.8,81.3,26.8,81.2,26.9,81.2z"></path> <path class="st2" d="M31.5,85.7c0-0.1,0-0.1,0-0.2s0-0.1,0.1-0.2C31.6,85.5,31.6,85.6,31.5,85.7z"></path> <path class="st2" d="M27.9,82.5L27.9,82.5c0.1-0.1,0.2-0.2,0.3-0.3c0.2-0.1,0.3-0.2,0.5-0.1c-0.3-0.1-0.4,0.1-0.6,0.2 C28,82.4,27.9,82.5,27.9,82.5z"></path> <path class="st2" d="M31.3,85.5c-0.1,0.1-0.1,0.2-0.2,0.3C31.2,85.7,31.2,85.5,31.3,85.5l0.1-0.2C31.4,85.3,31.4,85.4,31.3,85.5z "></path> <path class="st2" d="M31.3,81.1C31.2,81.2,31.2,81.2,31.3,81.1c-0.1,0-0.2,0-0.2-0.1s0-0.1,0.1-0.1C31.3,81,31.3,81.1,31.3,81.1 L31.3,81.1z"></path> <path class="st2" d="M35.5,84.7c0.1-0.1,0.1-0.2,0.2-0.3C35.6,84.5,35.6,84.6,35.5,84.7c0,0,0,0.1,0,0.2 C35.4,84.8,35.5,84.8,35.5,84.7L35.5,84.7z"></path> <path class="st2" d="M32.7,78C32.6,78,32.6,77.9,32.7,78C32.7,77.9,32.8,77.8,32.7,78h0.2C32.8,78,32.7,78,32.7,78z"></path> <path class="st2" d="M29.1,86.5C29.1,86.5,29.2,86.6,29.1,86.5c0,0.2-0.1,0.2-0.1,0.2s-0.1-0.1,0-0.1C29,86.5,29,86.5,29.1,86.5z "></path> <path class="st2" d="M31.4,82.1C31.5,82.1,31.5,82.2,31.4,82.1C31.4,82.2,31.4,82.2,31.4,82.1C31.3,82.2,31.3,82.2,31.4,82.1 L31.4,82.1z"></path> <path class="st2" d="M28.8,87.7c0,0.1-0.1,0.1-0.1,0.1s-0.1,0-0.1-0.1C28.6,87.6,28.7,87.6,28.8,87.7 C28.8,87.6,28.8,87.6,28.8,87.7z"></path> <path class="st2" d="M32,78.2C32,78.2,32,78.1,32,78.2c0-0.1,0-0.2,0-0.2C32.1,78,32.1,78.1,32,78.2C32.1,78.2,32.1,78.2,32,78.2 z"></path> <path class="st2" d="M31.3,82.6l0.1,0.1C31.4,82.7,31.3,82.8,31.3,82.6h-0.1C31.2,82.6,31.2,82.6,31.3,82.6z"></path> <path class="st2" d="M32.4,79.5C32.3,79.5,32.3,79.4,32.4,79.5c-0.1-0.2,0-0.2,0-0.2C32.5,79.3,32.5,79.4,32.4,79.5 C32.5,79.5,32.4,79.5,32.4,79.5z"></path> <path class="st2" d="M32.1,80.4c-0.1,0-0.1-0.1-0.1-0.1S32.1,80.2,32.1,80.4C32.2,80.3,32.2,80.4,32.1,80.4 C32.1,80.4,32.1,80.5,32.1,80.4z"></path> <path class="st2" d="M30.7,82.3C30.7,82.3,30.6,82.3,30.7,82.3c-0.1-0.1-0.1-0.2-0.1-0.2h0.1C30.8,82.1,30.8,82.2,30.7,82.3 L30.7,82.3L30.7,82.3z"></path> <path class="st2" d="M31.8,81.1L31.8,81.1c0,0.1,0,0.1-0.1,0.1C31.7,81.2,31.7,81.2,31.8,81.1C31.7,81.1,31.7,81.1,31.8,81.1z"></path> <path class="st2" d="M29.9,86.2c0-0.1,0.1-0.1,0.2-0.1c0.1,0.1,0.1,0.1,0,0.2C30,86.4,30,86.2,29.9,86.2z"></path> <path class="st2" d="M29.5,87.7c-0.1,0-0.1-0.1-0.1-0.2c0,0,0,0,0.1,0C29.6,87.6,29.5,87.7,29.5,87.7L29.5,87.7z"></path> <path class="st2" d="M32.2,78.4C32.3,78.4,32.3,78.5,32.2,78.4C32.3,78.5,32.3,78.6,32.2,78.4C32.2,78.5,32.2,78.5,32.2,78.4 L32.2,78.4z"></path> <path class="st2" d="M31.3,80.3L31.3,80.3c0,0.1,0,0.1-0.1,0.1C31.2,80.4,31.2,80.3,31.3,80.3C31.2,80.3,31.3,80.3,31.3,80.3z"></path> <path class="st2" d="M30.5,83.1L30.5,83.1c-0.1,0-0.2-0.1-0.1-0.1L30.5,83.1C30.6,83,30.6,83,30.5,83.1z"></path> <path class="st2" d="M29.5,85.3C29.5,85.4,29.5,85.4,29.5,85.3c-0.1,0-0.1,0-0.1,0C29.5,85.3,29.5,85.2,29.5,85.3 C29.5,85.3,29.6,85.3,29.5,85.3z"></path> <path class="st2" d="M30.6,84.2C30.6,84.3,30.6,84.3,30.6,84.2c-0.1,0-0.1,0-0.1,0S30.5,84.2,30.6,84.2L30.6,84.2z"></path> <path class="st2" d="M29,87.2c0,0.1-0.1,0.1-0.1,0.1s-0.1-0.1,0-0.1C28.9,87.1,29,87.1,29,87.2C29,87.1,29,87.2,29,87.2z"></path> </g> <g> <g> <path class="st2" d="M22.3,42.1L22.3,42.1C22.2,42.1,22.2,42.2,22.3,42.1c-0.1,0.1-0.1,0.1-0.1,0.1l0,0l0,0l0,0l0,0 c-0.1,0-0.2,0-0.4,0s-0.5-0.1-0.7-0.1S20.7,42,20.5,42s-0.3-0.1-0.3,0h-0.1c0,0,0,0-0.1,0h-0.1c0,0,0,0.1-0.1,0.2 c-0.1,0.2-0.1,0.5-0.2,0.9s-0.2,0.8-0.3,1.2c-0.1,0.4-0.3,0.9-0.4,1.4s-0.3,0.9-0.4,1.3c-0.1,0.4-0.2,0.8-0.3,1.1 c-0.1,0.3-0.1,0.5-0.2,0.7c-0.1,0.4-0.2,0.7-0.2,0.9c-0.1,0.2-0.2,0.6-0.3,0.9c-0.1,0.4-0.2,0.7-0.3,1.1 c-0.1,0.4-0.2,0.7-0.3,1.1c0,0.1-0.1,0.3-0.1,0.5s-0.1,0.4-0.1,0.5c0,0.2-0.1,0.4-0.1,0.5c-0.1,0.2-0.1,0.3-0.2,0.4 c-0.1,0.1-0.2,0.1-0.3,0.2c-0.1,0-0.3,0-0.4,0c-0.1,0-0.3-0.1-0.4-0.1c-0.1-0.1-0.2-0.1-0.3-0.2c-0.1-0.1-0.2-0.3-0.2-0.4 c0-0.2,0-0.3,0-0.5s0.1-0.3,0.1-0.5s0.1-0.3,0.1-0.5c0.1-0.4,0.2-0.7,0.3-1.1c0.1-0.3,0.2-0.7,0.3-1s0.2-0.7,0.3-1.1 c0.1-0.4,0.2-0.8,0.3-1.2c0.3-0.9,0.5-1.7,0.8-2.6c0.3-0.8,0.5-1.7,0.8-2.5c0.1-0.2,0.1-0.4,0.2-0.6c0.1-0.2,0.1-0.4,0.2-0.6 c0.1-0.2,0.1-0.3,0.2-0.4c0-0.1,0.1-0.2,0.1-0.3s0-0.1-0.1-0.2c0,0-0.1-0.1-0.2-0.1c0,0,0,0-0.1,0c0,0,0,0-0.1,0h-0.1 c-0.1,0-0.2,0-0.2-0.1c-0.1,0-0.2-0.1-0.2-0.1c-0.2-0.1-0.3-0.1-0.5-0.2c-0.2,0-0.4-0.1-0.5-0.2c-0.3-0.1-0.5-0.3-0.5-0.6 c-0.1-0.2,0-0.3,0.1-0.3s0.2,0,0.3,0.1c0.4,0.1,0.8,0.3,1.2,0.4c0.4,0.1,0.8,0.3,1.2,0.4c0.1,0,0.2,0.1,0.3,0.1 c0.1,0,0.2,0.1,0.3,0.1h0.1c0.1,0,0.2,0,0.3,0.1c0.1,0,0.3,0.1,0.4,0.1s0.3,0.1,0.4,0.1c0.3,0.1,0.6,0.1,0.9,0.2 c0.3,0.1,0.4,0.1,0.5,0.2c0,0,0.1,0,0.2,0.1c0.1,0,0.1,0.1,0.2,0.1c0.1,0.1,0.1,0.1,0.2,0.2C22.3,42,22.4,42,22.3,42.1 L22.3,42.1z"></path> <path class="st2" d="M19.9,48.4c0.2-0.8,0.4-1.5,0.7-2.1c0.3-0.6,0.6-1.2,1.1-1.8c0.4-0.6,0.9-1.1,1.4-1.5 c0.2-0.2,0.5-0.3,0.9-0.4c0.3-0.1,0.6,0,0.9,0.1s0.5,0.3,0.6,0.6c0.1,0.2,0.1,0.5,0,0.7c-0.1,0.1-0.1,0.2-0.2,0.2 s-0.2,0-0.3-0.1c-0.1-0.1-0.1-0.2-0.1-0.4c0-0.1,0-0.3,0-0.4c0-0.2-0.1-0.3-0.2-0.3s-0.2,0-0.3,0c-0.1,0.1-0.3,0.1-0.4,0.2 c-0.1,0.1-0.2,0.2-0.3,0.3c-0.1,0.1-0.2,0.2-0.2,0.3s-0.1,0.2-0.2,0.4c-0.2,0.4-0.3,0.6-0.5,1c-0.1,0.1-0.2,0.4-0.3,0.7 c-0.1,0.3-0.2,0.6-0.4,1c-0.1,0.4-0.2,0.7-0.3,1.1c-0.1,0.4-0.2,0.6-0.2,0.8c-0.1,0.4-0.2,0.7-0.3,1.1c-0.1,0.4-0.1,0.8-0.2,1.1 c-0.1,0.4-0.1,0.8-0.2,1.3c-0.1,0.4-0.1,0.9-0.1,1.3c0,0.2,0,0.3,0,0.5s0,0.4,0.1,0.5c0,0.2,0.1,0.3,0.2,0.5 c0.1,0.1,0.2,0.2,0.4,0.3c0.2,0.1,0.3,0.1,0.4,0c0.1,0,0.3-0.1,0.4-0.2c0.1-0.1,0.2-0.2,0.3-0.4c0.1-0.1,0.2-0.3,0.2-0.5 c0.1-0.2,0.1-0.3,0.2-0.4c0,0.1,0.1,0.1,0.2,0.1c0.3,0,0.3,0.1,0.3,0.5c-0.1,0.4-0.2,0.7-0.4,1c-0.2,0.3-0.4,0.5-0.7,0.6 c-0.2,0.1-0.3,0.1-0.5,0.1s-0.4,0-0.6,0s-0.4-0.1-0.5-0.2c-0.2-0.1-0.3-0.2-0.4-0.3c-0.3-0.3-0.6-0.6-0.7-0.9 c-0.2-0.4-0.3-0.7-0.3-1.2c-0.1-0.9-0.1-1.8,0-2.7C19.5,50.1,19.7,49.3,19.9,48.4z"></path> <path class="st2" d="M25.6,49c0.2-0.7,0.4-1.3,0.7-1.8c0.3-0.5,0.7-1,1.1-1.5c0.5-0.5,1-0.8,1.5-1.1c0.3-0.1,0.5-0.2,0.9-0.2 c0.3,0,0.6,0.1,0.9,0.3s0.5,0.4,0.6,0.6c0.1,0.2,0.1,0.4,0,0.6C31.2,46,31.2,46,31.1,46s-0.2,0-0.3-0.1 c-0.1-0.1-0.1-0.2-0.1-0.3s0-0.2,0-0.3s-0.1-0.2-0.2-0.3c-0.1,0-0.2-0.1-0.3,0c-0.1,0-0.3,0.1-0.4,0.1c-0.1,0.1-0.2,0.1-0.3,0.2 c-0.1,0.1-0.2,0.2-0.2,0.3s-0.1,0.2-0.2,0.3c-0.2,0.3-0.3,0.5-0.5,0.8c-0.1,0.1-0.2,0.3-0.3,0.5c-0.1,0.3-0.2,0.6-0.4,0.9 c-0.1,0.3-0.2,0.7-0.3,1c-0.1,0.3-0.2,0.6-0.2,0.8c-0.1,0.4-0.2,0.8-0.3,1.2c-0.1,0.4-0.1,0.8-0.2,1.3s-0.1,0.9-0.2,1.4 s-0.1,1-0.1,1.4c0,0.2,0,0.4,0,0.6c0,0.2,0,0.4,0.1,0.6c0,0.2,0.1,0.4,0.2,0.5c0.1,0.2,0.2,0.3,0.4,0.4c0.2,0.1,0.3,0.1,0.5,0.1 c0.1,0,0.3-0.1,0.4-0.2c0.1-0.1,0.2-0.2,0.3-0.4c0.1-0.1,0.2-0.3,0.2-0.5c0.1-0.2,0.1-0.3,0.2-0.4c0.1-0.1,0.2-0.1,0.3-0.1 c0.3,0,0.4,0.2,0.3,0.5c-0.1,0.4-0.2,0.7-0.4,1c-0.2,0.3-0.4,0.5-0.7,0.6C28.2,58,28.1,58,27.9,58s-0.4,0-0.6-0.1 c-0.2,0-0.4-0.1-0.5-0.2c-0.2-0.1-0.3-0.2-0.5-0.3c-0.3-0.3-0.6-0.7-0.8-1.1c-0.2-0.4-0.3-0.9-0.4-1.3c-0.1-1.1-0.2-2.1,0-3.1 C25.2,50.8,25.4,49.8,25.6,49z"></path> <path class="st2" d="M34.7,48.9c-0.1,0.4-0.3,0.8-0.5,1.3s-0.3,1-0.5,1.5s-0.4,1.1-0.5,1.7c-0.1,0.6-0.3,1.2-0.5,1.8 c0,0.2-0.1,0.3-0.1,0.5s-0.1,0.3-0.1,0.4c-0.1,0.2-0.1,0.3-0.1,0.5s-0.1,0.3-0.1,0.5c-0.1,0.2-0.2,0.5-0.2,0.7 c-0.1,0.2-0.2,0.4-0.3,0.6c0,0.1-0.1,0.1-0.2,0.2c-0.1,0.1-0.1,0.2-0.2,0.2c0,0-0.1,0-0.1-0.1l-0.1-0.1h-0.1H31 c-0.1,0-0.1,0-0.2-0.1s-0.1-0.1-0.2-0.2c0-0.1,0-0.3,0-0.5s0.1-0.3,0.1-0.5c0.3-1.4,0.6-2.8,0.9-4.1s0.7-2.6,1-3.6 c0.2-0.5,0.4-1,0.5-1.4c0.2-0.4,0.4-0.7,0.5-1.1c0-0.1,0.1-0.2,0.1-0.2c0-0.1,0.1-0.2,0.1-0.2c0-0.1,0.1-0.1,0.1-0.2 c0-0.1,0.1-0.1,0.2-0.1c0.2,0,0.4,0,0.6,0.1c0.2,0.1,0.4,0.2,0.5,0.4s0.2,0.3,0.3,0.5c0.1,0.1,0.1,0.3,0.1,0.5s-0.1,0.4-0.1,0.7 c0,0.2,0,0.5-0.1,0.7c0,0.3,0,0.5-0.1,0.9c0,0.3,0,0.7,0,1c0,0.2,0,0.3,0,0.5s0,0.3,0,0.5c0,0.1,0,0.3-0.1,0.5 c0,0.2,0,0.4,0,0.5c0.1-0.2,0.2-0.3,0.3-0.5s0.1-0.4,0.2-0.6c0.1-0.2,0.2-0.4,0.3-0.6c0.1-0.2,0.2-0.4,0.3-0.5 c0.2-0.3,0.4-0.7,0.7-1c0.2-0.3,0.4-0.6,0.6-0.8c0.1-0.1,0.2-0.2,0.3-0.3s0.2-0.2,0.3-0.3s0.2-0.2,0.3-0.2 c0.1-0.1,0.2-0.1,0.3-0.2c0.1,0,0.2-0.1,0.4-0.1c0.1,0,0.2,0,0.4,0.1s0.2,0.1,0.3,0.2c0,0.1,0.1,0.2,0,0.3 c0,0.2-0.1,0.5-0.2,0.8c-0.1,0.3-0.2,0.6-0.3,0.9c-0.1,0.4-0.2,0.8-0.3,1.2s-0.2,0.8-0.3,1.2s-0.2,0.8-0.3,1.2s-0.3,0.8-0.4,1.2 C38,55.4,38,55.7,37.9,56s-0.2,0.6-0.2,0.9c-0.1,0.3-0.2,0.6-0.2,0.9c-0.1,0.3-0.2,0.6-0.2,0.8s-0.1,0.4-0.1,0.6 c0,0.2-0.1,0.4-0.2,0.6c0,0.1,0,0.1,0,0.2c0,0.1,0,0.2-0.1,0.3c0,0.1-0.1,0.2-0.1,0.3s-0.1,0.2-0.1,0.2c-0.1,0.1-0.2,0.1-0.3,0 c-0.1,0-0.2-0.1-0.2-0.2c-0.1-0.2-0.1-0.4-0.1-0.6c0-0.2,0.1-0.4,0.1-0.6c0.1-0.2,0.1-0.5,0.2-0.8c0.1-0.3,0.2-0.6,0.2-1 c0.1-0.3,0.2-0.7,0.3-1s0.2-0.6,0.2-0.8c0.1-0.4,0.2-0.9,0.3-1.3c0.1-0.4,0.2-0.9,0.4-1.3c0.3-1,0.5-1.4,0.8-2.3 c0.1-0.4,0.3-0.8,0.4-1.1c0.1-0.3,0.3-0.6,0.4-0.9c0-0.1,0-0.2-0.1-0.2s-0.2,0-0.3,0.1c-0.1,0-0.1,0.1-0.2,0.2 c-0.1,0.1-0.2,0.2-0.2,0.2c-0.2,0.2-0.4,0.5-0.6,0.7c-0.2,0.3-0.4,0.6-0.6,0.9c-0.2,0.4-0.5,0.8-0.7,1.2s-0.4,0.8-0.7,1.3 c-0.1,0.2-0.2,0.4-0.3,0.7c-0.1,0.2-0.2,0.4-0.4,0.6c0,0.1-0.1,0.1-0.2,0.2C35,54.9,34.9,55,34.9,55c-0.1,0-0.2-0.1-0.2-0.2 c0-0.1,0-0.2-0.1-0.3c-0.1-0.5-0.1-1-0.1-1.5s0.1-1,0.1-1.5c0-0.2,0-0.5,0-0.7s0-0.5,0-0.7c0-0.3,0-0.4,0-0.7c0-0.1,0-0.2,0-0.3 C34.8,49,34.8,49,34.7,48.9z"></path> </g> </g> <g> <g> <g> <path class="st2" d="M7.6,86.9c-0.2,0.6,0,1.2,0.6,1.5c0.2,0.1,0.4,0.1,0.5,0.1c5.2-0.3,11.2,1.1,17,3.1s11.6,4.8,16.5,7.3v2.2 c0,0.2,0.1,0.5,0.2,0.7l0,0l8.6,11.8c0.1,0.1,0.2,0.2,0.3,0.3c0.5,0.4,1.2,0.3,1.5-0.2l0,0l0,0l8.7-12c0.2-0.2,0.2-0.4,0.2-0.7 v-3c0-0.6-0.5-1.1-1.1-1.1s-1.1,0.5-1.1,1.1v2.4l-3,4.1c-1.5-0.8-5.1-2.2-9,0.4l-3.2-4.3v-2.4c0-0.4-0.2-0.7-0.4-0.9 c-0.1-0.2-0.2-0.3-0.4-0.4c-5.1-2.6-11.1-5.5-17.2-7.6C20.7,87.4,15.1,86,10,86c3.7-12.2,2.1-41.3,1.7-47.6 c6,0.1,11.4,1,16,2.1c7.1,1.7,12.1,4.1,14.5,5.6c0.5,0.3,1.2,0.1,1.5-0.4s0.1-1.2-0.4-1.5c-2.5-1.6-7.8-4.1-15.2-5.8 c-5-1.2-11-2.1-17.7-2.2l0,0c-0.6,0-1.1,0.5-1.1,1.1c0,0.1,0,0.1,0,0.2C9.8,39.2,12.3,75.2,7.6,86.9 M52.1,111l-3.2-4.4 c2.9-1.8,5.5-1,6.7-0.4L52.1,111z"></path> </g> </g> <path class="st2" d="M52,111l-3.2-4.4c2.9-1.8,5.5-1,6.7-0.4L52,111z"></path> <path class="st10" d="M52,111l-3.2-4.4c2.9-1.8,5.5-1,6.7-0.4L52,111z"></path> </g> <g class="st12"> <path class="st2" d="M31.7,72.4c-0.2,0-0.3-0.1-0.5-0.1c0.2-0.3,0.3-0.7,0.5-1c0.1-0.2,0.1-0.2-0.1-0.4c-0.4-0.2-0.7-0.4-0.7-0.9 c0-0.2,0.1-0.4,0.1-0.6c0.1-0.3,0.3-0.5,0.4-0.8c0-0.1,0.1-0.1,0.1-0.2s0-0.2,0-0.3c-0.1,0-0.2,0-0.3,0c-0.2,0.1-0.2,0-0.3-0.1 c0.2-0.2,0.5-0.3,0.8-0.2c0.3,0,0.4,0.2,0.4,0.5c0,0.2-0.1,0.3-0.1,0.5c-0.1,0.3-0.3,0.6-0.4,0.9c-0.1,0.2-0.1,0.3-0.1,0.5 c0,0.3,0.2,0.5,0.5,0.6c0,0,0.1,0,0.2-0.1c0.5-1,1-2.1,1.5-3.1c0.1-0.1,0.1-0.3,0.2-0.4c0.2-0.3,0.3-0.4,0.6-0.2 c-0.6,1.3-1.2,2.6-1.9,3.9c0.4,0.1,0.8,0,1.1-0.3c0.5-0.4,0.7-0.9,0.8-1.5c0-0.2,0-0.3,0-0.5s0.1-0.2,0.2-0.2 c0.4,0.1,0.4,0,0.3,0.5c-0.1,0.6-0.4,1.2-0.8,1.7c-0.5,0.4-1,0.6-1.6,0.6c-0.2,0-0.2,0-0.3,0.2C32.1,71.8,31.9,72.1,31.7,72.4z"></path> <path class="st2" d="M28.9,68.2c-0.2,0-0.3-0.1-0.5-0.1c-0.3-0.1-0.7-0.2-1-0.2c-0.1,0-0.2,0-0.2,0.1c-0.2,0.5-0.4,0.9-0.6,1.4 c-0.1,0.2-0.1,0.3,0.1,0.4c0,0,0.1,0.1,0,0.1L26.6,70c-0.4-0.1-0.8-0.2-1.2-0.3c0.1-0.1,0.1-0.1,0.1-0.1c0.3,0,0.4-0.2,0.5-0.4 c0.4-0.8,0.8-1.6,1.2-2.4c0.1-0.2,0.1-0.3,0.2-0.5c0.1-0.3,0.1-0.4-0.2-0.6c0.1,0,0.1-0.1,0.2-0.1c0.4,0.1,0.7,0.2,1.1,0.3 c0,0,0,0,0.1,0.1l-0.1,0.1c-0.2,0-0.3,0.2-0.4,0.4c-0.2,0.4-0.4,0.8-0.6,1.2c0.3,0.1,0.5,0.1,0.7,0.2c0.3,0.1,0.5,0.1,0.8,0.2 c0.1,0,0.2,0,0.2,0c0.2-0.4,0.4-0.8,0.5-1.2c0.1-0.2,0.1-0.3-0.1-0.4v-0.1c0,0,0.1-0.1,0.1,0c0.2,0,0.4,0.1,0.6,0.1 c0.2,0,0.3,0.1,0.5,0.1c-0.1,0.1-0.1,0.1-0.1,0.1c-0.3,0-0.4,0.2-0.5,0.4c-0.3,0.6-0.6,1.2-0.8,1.7c-0.2,0.4-0.4,0.8-0.5,1.2 c-0.1,0.2-0.1,0.4,0.1,0.5v0.1c-0.1,0-0.1,0-0.1,0c-0.3-0.1-0.6-0.1-0.9-0.2c-0.1,0-0.2,0-0.3-0.1c0.1-0.1,0.1-0.1,0.1-0.1 c0.2,0,0.3-0.1,0.4-0.3C28.4,69.2,28.7,68.7,28.9,68.2z"></path> <path class="st2" d="M35.8,69.4c1.3,0.3,2.6,0.6,3.8,0.9v0.1c-0.1,0.3-0.1,0.3-0.4,0.3c-1.1-0.3-2.1-0.5-3.2-0.8 C35.7,69.8,35.7,69.8,35.8,69.4z"></path> <path class="st2" d="M39.3,71.6L39.3,71.6c0,0.4,0,0.4-0.4,0.3c-1.1-0.3-2.2-0.5-3.3-0.8c-0.2-0.1-0.3-0.2-0.1-0.4 c0,0,0.1,0,0.2,0c0.7,0.2,1.5,0.3,2.2,0.5C38.4,71.4,38.8,71.5,39.3,71.6z"></path> <path class="st2" d="M29.4,64.6c0.1,0.1,0.2,0.1,0.3,0.2c0.4,0.3,0.8,0.6,1.1,0.9c0,0,0,0.1,0.1,0.2c-0.1,0-0.2,0-0.2,0 c-0.4-0.2-0.8-0.5-1.2-0.7c-0.1-0.1-0.3-0.1-0.4-0.1c-0.5,0-0.9,0.1-1.4,0.1c-0.1,0-0.1-0.1-0.2-0.1l0.1-0.1 c0.5-0.1,0.9-0.2,1.4-0.3C29.1,64.6,29.2,64.6,29.4,64.6z"></path> <g> <path class="st2" d="M44.8,76.2c0.2-0.4,0.4-0.8,0.6-1.2c-0.2-0.1-0.4-0.2-0.5-0.3c-0.4-0.2-0.5-0.6-0.4-1 c0.1-0.3,0.2-0.5,0.3-0.8c0.1-0.2,0.2-0.3,0.2-0.5c0-0.1,0-0.2,0-0.3c-0.1,0-0.2,0-0.3,0c-0.2,0-0.3,0-0.3-0.2 c0.3-0.2,0.5-0.3,0.8-0.2c0.3,0.1,0.4,0.2,0.4,0.5c0,0.2-0.1,0.4-0.2,0.6c-0.1,0.3-0.3,0.6-0.4,1c-0.1,0.4,0,0.6,0.3,0.8 c0.1,0.1,0.2,0.1,0.3-0.1c0.5-1.2,1.1-2.3,1.6-3.4c0.2-0.4,0.2-0.4,0.6-0.2c-0.6,1.3-1.2,2.6-1.9,3.9c0.4,0.1,1-0.1,1.4-0.5 c0.4-0.5,0.5-1,0.6-1.6c0-0.1,0-0.1,0-0.2s0.1-0.2,0.2-0.2c0.4,0.1,0.4,0.1,0.3,0.5c-0.1,0.7-0.4,1.3-0.9,1.7 c-0.4,0.4-0.9,0.6-1.5,0.5c-0.2,0-0.3,0-0.4,0.2c-0.1,0.3-0.3,0.5-0.4,0.8C45.1,76.2,45,76.2,44.8,76.2 C44.9,76.3,44.9,76.3,44.8,76.2z"></path> <path class="st2" d="M43.3,71.5c-0.2,0.3-0.3,0.7-0.5,1c0,0.1-0.2,0.1-0.2,0.1c0-0.1,0-0.1,0-0.1c0-0.4,0-0.4-0.4-0.5 c-0.5-0.1-0.5-0.1-0.7,0.3S41.1,73,41,73.4v0.1c0.4,0.1,0.8,0.2,1.1,0.3c0.2,0,0.4-0.1,0.5-0.3c0.1-0.1,0.2-0.1,0.2-0.2 c0.1-0.2,0.2-0.2,0.4,0c-0.2,0.3-0.3,0.6-0.5,0.9c0,0-0.1,0.1-0.2,0c-0.9-0.2-1.7-0.4-2.6-0.6c0,0-0.1,0-0.1-0.1l0.1-0.1 c0.2,0,0.3-0.2,0.4-0.3c0.5-1,0.9-1.9,1.4-2.9c0.1-0.3,0.1-0.4-0.2-0.6c0.1,0,0.1-0.1,0.2-0.1c0.9,0.2,1.8,0.4,2.7,0.6 c0,0,0,0,0.1,0c-0.1,0.3-0.2,0.5-0.4,0.8h-0.2c0,0-0.1-0.1-0.1-0.2c0-0.6,0-0.6-0.5-0.7c-0.2-0.1-0.5-0.1-0.7-0.2 c-0.1,0-0.2,0-0.2,0.1c-0.2,0.5-0.5,0.9-0.7,1.4c0.3,0.1,0.5,0.2,0.8,0.2c0.1,0,0.3-0.1,0.4-0.2C43,71.4,43.2,71.4,43.3,71.5z"></path> </g> </g> </g> </g> <linearGradient id="SVGID_2_" gradientUnits="userSpaceOnUse" x1="84.1" y1="14.3398" x2="268.5" y2="14.3398" gradientTransform="matrix(1 0 0 -1 0 115.8898)"> <stop offset="0" style="stop-color:#FFFFFF;stop-opacity:0"></stop> <stop offset="1" style="stop-color:#06497F"></stop> </linearGradient> <rect x="84.1" y="100.7" class="st13" width="184.4" height="1.7"></rect> <g> <path class="st3" d="M42.6,25.8c-1.6,2-2.9,4.2-3.4,6.6c-0.2,1.2,0.5,1.9,1.2,1.9c0.1,0,0.2,0,0.3,0c3-2,5.6-2.7,7.8-2.7 c3.2,0,4.6,1.8,3.8,6.8c-0.4,2.1-1.9,9.7-2.2,11.8c-1.1,5.9-0.9,10.3,1.5,13.7c1.8,2.7,3.7,3.4,6.4,4.9c0.4,0.3,0.7,0.8,0.6,1.3 c-1.3,4.5-3.4,10.5-7.3,20.1c-1.2,3.3-0.9,6.7,1.5,6.9c0.8,0,1.4-0.2,1.9-0.4c-0.8,1.6-1.9,2.5-3.9,2.5c-2.3,0-2.7-3.5-1.4-6.8 c3.9-9.6,5.9-15.5,7.3-20.1c0.1-0.5-0.3-1.1-0.6-1.3c-2.7-1.5-4.6-2.2-6.4-4.9c-2.4-3.4-2.6-7.7-1.5-13.7c0.4-2.1,1.9-9.7,2.2-11.8 c0.8-5.1-0.6-6.8-3.8-6.8c-2.2,0-4.8,0.6-7.8,2.7c-0.1,0-0.2,0-0.3,0c-0.7,0-1.5-0.7-1.3-2C38,31.2,40.1,28.1,42.6,25.8 M42.6,25.3 c-0.1,0-0.2,0-0.3,0.1c-2.8,2.5-4.8,5.8-5.5,9c0,0,0,0,0,0.1c-0.1,0.8,0.1,1.5,0.5,2c0.3,0.4,0.8,0.6,1.3,0.6c0.1,0,0.3,0,0.4,0 c0.1,0,0.1,0,0.2-0.1c2.5-1.8,5-2.6,7.5-2.6c1.3,0,2.2,0.3,2.8,0.9c0.8,0.9,1,2.6,0.6,5.3c-0.2,1.7-1.2,6.8-1.8,9.9 c-0.2,0.8-0.3,1.4-0.4,1.9c-1.2,6.6-0.7,10.8,1.6,14.1c1.6,2.4,3.3,3.3,5.4,4.4c0.4,0.2,0.8,0.4,1.2,0.6c0.1,0.1,0.4,0.5,0.4,0.8 c-1.2,3.9-3.1,9.7-7.3,20c-1,2.5-1,5.1-0.1,6.4c0.5,0.7,1.1,1,2,1c2,0,3.4-0.9,4.3-2.8c0.1-0.2,0.1-0.4-0.1-0.6 c-0.1-0.1-0.2-0.2-0.4-0.2c-0.1,0-0.1,0-0.2,0c-0.5,0.2-1,0.4-1.7,0.4c-0.5,0-0.9-0.3-1.2-0.7c-0.7-1.1-0.6-3.3,0.2-5.5 c3.5-8.7,5.9-15.1,7.3-20.1c0.1-0.7-0.2-1.4-0.8-1.8c0,0,0,0-0.1,0c-0.4-0.2-0.8-0.4-1.2-0.6c-2.1-1.1-3.6-1.9-5-4.1 c-2.2-3.1-2.6-7.1-1.4-13.3c0.2-1.7,1.2-6.8,1.8-9.9c0.2-0.8,0.3-1.4,0.4-1.9c0.5-3,0.2-4.9-0.8-6.1c-0.8-0.9-1.9-1.3-3.5-1.3 c-2.6,0-5.3,0.9-8,2.7h-0.1c-0.2,0-0.4-0.1-0.5-0.2c-0.2-0.2-0.3-0.6-0.2-1.1c0.4-2,1.5-4.1,3.3-6.4c0.2-0.2,0.1-0.5,0-0.7 C42.8,25.3,42.7,25.3,42.6,25.3L42.6,25.3z M42.6,26.3L42.6,26.3L42.6,26.3L42.6,26.3z"></path> </g> </svg> 